<svg width="20" height="20" viewBox="0 0 20 20" fill="none" xmlns="http://www.w3.org/2000/svg">
<g id="u:database-alt">
<path id="Vector" d="M6.66732 14.1667C6.5025 14.1667 6.34138 14.2156 6.20434 14.3071C6.0673 14.3987 5.96049 14.5288 5.89742 14.6811C5.83434 14.8334 5.81784 15.0009 5.85 15.1626C5.88215 15.3242 5.96152 15.4727 6.07806 15.5893C6.19461 15.7058 6.34309 15.7852 6.50474 15.8173C6.66639 15.8495 6.83395 15.833 6.98622 15.7699C7.13849 15.7068 7.26864 15.6 7.36021 15.463C7.45178 15.326 7.50065 15.1648 7.50065 15C7.50065 14.779 7.41285 14.567 7.25657 14.4108C7.10029 14.2545 6.88833 14.1667 6.66732 14.1667ZM6.66732 9.16669C6.5025 9.16669 6.34138 9.21556 6.20434 9.30713C6.0673 9.3987 5.96049 9.52885 5.89742 9.68112C5.83434 9.83339 5.81784 10.0009 5.85 10.1626C5.88215 10.3242 5.96152 10.4727 6.07806 10.5893C6.19461 10.7058 6.34309 10.7852 6.50474 10.8173C6.66639 10.8495 6.83395 10.833 6.98622 10.7699C7.13849 10.7068 7.26864 10.6 7.36021 10.463C7.45178 10.326 7.50065 10.1648 7.50065 10C7.50065 9.77901 7.41285 9.56705 7.25657 9.41077C7.10029 9.25449 6.88833 9.16669 6.66732 9.16669ZM13.334 1.66669H6.66732C5.78326 1.66669 4.93542 2.01788 4.31029 2.643C3.68517 3.26812 3.33398 4.11597 3.33398 5.00002V15C3.33398 15.8841 3.68517 16.7319 4.31029 17.357C4.93542 17.9822 5.78326 18.3334 6.66732 18.3334H13.334C14.218 18.3334 15.0659 17.9822 15.691 17.357C16.3161 16.7319 16.6673 15.8841 16.6673 15V5.00002C16.6673 4.11597 16.3161 3.26812 15.691 2.643C15.0659 2.01788 14.218 1.66669 13.334 1.66669ZM15.0007 15C15.0007 15.442 14.8251 15.866 14.5125 16.1785C14.1999 16.4911 13.776 16.6667 13.334 16.6667H6.66732C6.22529 16.6667 5.80137 16.4911 5.48881 16.1785C5.17625 15.866 5.00065 15.442 5.00065 15V12.8667C5.50398 13.1696 6.07985 13.3309 6.66732 13.3334H13.334C13.9215 13.3309 14.4973 13.1696 15.0007 12.8667V15ZM15.0007 10C15.0007 10.442 14.8251 10.866 14.5125 11.1785C14.1999 11.4911 13.776 11.6667 13.334 11.6667H6.66732C6.22529 11.6667 5.80137 11.4911 5.48881 11.1785C5.17625 10.866 5.00065 10.442 5.00065 10V7.86669C5.50398 8.16965 6.07985 8.33089 6.66732 8.33335H13.334C13.9215 8.33089 14.4973 8.16965 15.0007 7.86669V10ZM13.334 6.66669H6.66732C6.22529 6.66669 5.80137 6.49109 5.48881 6.17853C5.17625 5.86597 5.00065 5.44205 5.00065 5.00002C5.00065 4.55799 5.17625 4.13407 5.48881 3.82151C5.80137 3.50895 6.22529 3.33335 6.66732 3.33335H13.334C13.776 3.33335 14.1999 3.50895 14.5125 3.82151C14.8251 4.13407 15.0007 4.55799 15.0007 5.00002C15.0007 5.44205 14.8251 5.86597 14.5125 6.17853C14.1999 6.49109 13.776 6.66669 13.334 6.66669Z" fill="#212529"/>
</g>
</svg>
