<svg width="20" height="20" viewBox="0 0 20 20" fill="none" xmlns="http://www.w3.org/2000/svg">
<g id="u:book-open">
<path id="Vector" d="M17.6423 1.71669C17.045 1.6138 16.4401 1.56084 15.834 1.55835C13.7659 1.55666 11.741 2.14966 10.0006 3.26669C8.25576 2.16433 6.23118 1.58588 4.16731 1.60002C3.56118 1.6025 2.95631 1.65546 2.35897 1.75835C2.16331 1.79209 1.98612 1.89457 1.85932 2.04735C1.73251 2.20013 1.66442 2.39316 1.66731 2.59169V12.5917C1.66552 12.7141 1.69075 12.8355 1.74118 12.9471C1.79162 13.0586 1.86603 13.1577 1.95912 13.2373C2.05221 13.3169 2.16169 13.3749 2.27977 13.4074C2.39785 13.4398 2.52163 13.4458 2.64231 13.425C3.83649 13.2183 5.05998 13.2526 6.2407 13.5259C7.42142 13.7993 8.53549 14.3061 9.51731 15.0167L9.61731 15.075H9.70897C9.80139 15.1135 9.90052 15.1334 10.0006 15.1334C10.1008 15.1334 10.1999 15.1135 10.2923 15.075H10.384L10.484 15.0167C11.4589 14.2903 12.5698 13.767 13.7508 13.4778C14.9317 13.1887 16.1587 13.1395 17.359 13.3334C17.4796 13.3542 17.6034 13.3482 17.7215 13.3157C17.8396 13.2833 17.9491 13.2252 18.0422 13.1456C18.1353 13.0661 18.2097 12.967 18.2601 12.8554C18.3105 12.7438 18.3358 12.6225 18.334 12.5V2.50002C18.3253 2.31015 18.252 2.12895 18.1262 1.98647C18.0004 1.84399 17.8296 1.7488 17.6423 1.71669ZM9.16731 12.7917C7.62554 11.9806 5.90941 11.5573 4.16731 11.5584C3.89231 11.5584 3.61731 11.5584 3.33397 11.5584V3.22502C3.61152 3.20902 3.88976 3.20902 4.16731 3.22502C5.94513 3.22305 7.68415 3.74476 9.16731 4.72502V12.7917ZM16.6673 11.5917C16.384 11.5917 16.109 11.5917 15.834 11.5917C14.0919 11.5906 12.3757 12.0139 10.834 12.825V4.72502C12.3171 3.74476 14.0562 3.22305 15.834 3.22502C16.1115 3.20902 16.3898 3.20902 16.6673 3.22502V11.5917ZM17.6423 15.05C17.045 14.9471 16.4401 14.8942 15.834 14.8917C13.7659 14.89 11.741 15.483 10.0006 16.6C8.26024 15.483 6.23534 14.89 4.16731 14.8917C3.56118 14.8942 2.95631 14.9471 2.35897 15.05C2.2505 15.0672 2.14649 15.1057 2.05294 15.1633C1.95939 15.2208 1.87814 15.2963 1.81386 15.3854C1.74958 15.4744 1.70354 15.5753 1.67839 15.6822C1.65324 15.7891 1.64947 15.9 1.66731 16.0084C1.70966 16.2248 1.83605 16.4156 2.0188 16.5389C2.20155 16.6623 2.42576 16.7083 2.64231 16.6667C3.83649 16.4599 5.05998 16.4942 6.2407 16.7676C7.42142 17.0409 8.53549 17.5478 9.51731 18.2584C9.65844 18.3588 9.82739 18.4128 10.0006 18.4128C10.1739 18.4128 10.3428 18.3588 10.484 18.2584C11.4658 17.5478 12.5799 17.0409 13.7606 16.7676C14.9413 16.4942 16.1648 16.4599 17.359 16.6667C17.5755 16.7083 17.7997 16.6623 17.9825 16.5389C18.1652 16.4156 18.2916 16.2248 18.334 16.0084C18.3518 15.9 18.348 15.7891 18.3229 15.6822C18.2977 15.5753 18.2517 15.4744 18.1874 15.3854C18.1231 15.2963 18.0419 15.2208 17.9483 15.1633C17.8548 15.1057 17.7508 15.0672 17.6423 15.05Z" fill="#212529"/>
</g>
</svg>
