<svg width="20" height="20" viewBox="0 0 20 20" fill="none" xmlns="http://www.w3.org/2000/svg">
<g id="u:users-alt">
<path id="Vector" d="M10.2507 10.1833C10.6953 9.79844 11.0519 9.32239 11.2964 8.78751C11.5408 8.25262 11.6673 7.67141 11.6673 7.08332C11.6673 5.97825 11.2283 4.91845 10.4469 4.13705C9.66553 3.35564 8.60572 2.91666 7.50065 2.91666C6.39558 2.91666 5.33577 3.35564 4.55437 4.13705C3.77297 4.91845 3.33398 5.97825 3.33398 7.08332C3.33398 7.67141 3.46049 8.25262 3.70492 8.78751C3.94936 9.32239 4.306 9.79844 4.75065 10.1833C3.5841 10.7116 2.59437 11.5646 1.8998 12.6404C1.20523 13.7163 0.835211 14.9694 0.833984 16.25C0.833984 16.471 0.921782 16.683 1.07806 16.8392C1.23434 16.9955 1.4463 17.0833 1.66732 17.0833C1.88833 17.0833 2.10029 16.9955 2.25657 16.8392C2.41285 16.683 2.50065 16.471 2.50065 16.25C2.50065 14.9239 3.02744 13.6521 3.96512 12.7145C4.9028 11.7768 6.17457 11.25 7.50065 11.25C8.82673 11.25 10.0985 11.7768 11.0362 12.7145C11.9739 13.6521 12.5007 14.9239 12.5007 16.25C12.5007 16.471 12.5884 16.683 12.7447 16.8392C12.901 16.9955 13.113 17.0833 13.334 17.0833C13.555 17.0833 13.767 16.9955 13.9232 16.8392C14.0795 16.683 14.1673 16.471 14.1673 16.25C14.1661 14.9694 13.7961 13.7163 13.1015 12.6404C12.4069 11.5646 11.4172 10.7116 10.2507 10.1833ZM7.50065 9.58332C7.0062 9.58332 6.52285 9.4367 6.11173 9.162C5.7006 8.88729 5.38017 8.49685 5.19095 8.04003C5.00173 7.58322 4.95222 7.08055 5.04869 6.5956C5.14515 6.11065 5.38325 5.66519 5.73288 5.31556C6.08252 4.96593 6.52797 4.72782 7.01293 4.63136C7.49788 4.5349 8.00054 4.58441 8.45736 4.77362C8.91418 4.96284 9.30462 5.28328 9.57932 5.6944C9.85403 6.10552 10.0007 6.58887 10.0007 7.08332C10.0007 7.74637 9.73726 8.38225 9.26842 8.85109C8.79958 9.31993 8.16369 9.58332 7.50065 9.58332ZM15.6173 9.84999C16.1506 9.24943 16.499 8.50754 16.6205 7.71361C16.742 6.91968 16.6314 6.10755 16.3021 5.37499C15.9728 4.64243 15.4388 4.02065 14.7644 3.58451C14.0899 3.14836 13.3038 2.91644 12.5007 2.91666C12.2796 2.91666 12.0677 3.00445 11.9114 3.16073C11.7551 3.31701 11.6673 3.52898 11.6673 3.74999C11.6673 3.971 11.7551 4.18297 11.9114 4.33925C12.0677 4.49553 12.2796 4.58332 12.5007 4.58332C13.1637 4.58332 13.7996 4.84672 14.2684 5.31556C14.7373 5.7844 15.0007 6.42028 15.0007 7.08332C14.9995 7.52102 14.8834 7.95074 14.664 8.32951C14.4447 8.70827 14.1297 9.02281 13.7507 9.24166C13.6271 9.31292 13.5239 9.41471 13.451 9.53727C13.378 9.65984 13.3377 9.79907 13.334 9.94166C13.3305 10.0831 13.3631 10.2232 13.4287 10.3485C13.4943 10.4739 13.5908 10.5805 13.709 10.6583L14.034 10.875L14.1423 10.9333C15.1468 11.4098 15.9942 12.1633 16.5848 13.1053C17.1754 14.0472 17.4844 15.1383 17.4757 16.25C17.4757 16.471 17.5634 16.683 17.7197 16.8392C17.876 16.9955 18.088 17.0833 18.309 17.0833C18.53 17.0833 18.742 16.9955 18.8982 16.8392C19.0545 16.683 19.1423 16.471 19.1423 16.25C19.1491 14.9712 18.8288 13.7119 18.2119 12.5917C17.5949 11.4715 16.7018 10.5278 15.6173 9.84999Z" fill="#212529"/>
</g>
</svg>
