<svg width="20" height="20" viewBox="0 0 20 20" fill="none" xmlns="http://www.w3.org/2000/svg">
<g id="u:folder-open">
<path id="Vector" d="M18.984 8.64165C18.9056 8.54497 18.8065 8.46709 18.694 8.41373C18.5815 8.36037 18.4585 8.3329 18.334 8.33332H16.6673V7.49999C16.6673 6.83695 16.4039 6.20106 15.9351 5.73222C15.4662 5.26338 14.8304 4.99999 14.1673 4.99999H8.93398L8.66732 4.16665C8.49444 3.67768 8.17377 3.25457 7.74973 2.95596C7.3257 2.65734 6.81928 2.49799 6.30065 2.49999H3.33398C2.67094 2.49999 2.03506 2.76338 1.56622 3.23222C1.09738 3.70106 0.833984 4.33695 0.833984 4.99999V15C0.833984 15.663 1.09738 16.2989 1.56622 16.7678C2.03506 17.2366 2.67094 17.5 3.33398 17.5H15.334C15.9017 17.4983 16.4519 17.3035 16.8941 16.9476C17.3364 16.5917 17.6443 16.0959 17.7673 15.5417L19.1673 9.34999C19.1927 9.22575 19.1893 9.09737 19.1575 8.97462C19.1258 8.85188 19.0664 8.738 18.984 8.64165ZM4.47565 15.1833C4.43332 15.3713 4.32714 15.5388 4.1752 15.6573C4.02327 15.7758 3.83495 15.838 3.64232 15.8333H3.33398C3.11297 15.8333 2.90101 15.7455 2.74473 15.5892C2.58845 15.433 2.50065 15.221 2.50065 15V4.99999C2.50065 4.77897 2.58845 4.56701 2.74473 4.41073C2.90101 4.25445 3.11297 4.16665 3.33398 4.16665H6.30065C6.48237 4.15717 6.6622 4.20743 6.81268 4.30975C6.96315 4.41207 7.076 4.56084 7.13398 4.73332L7.58398 6.09999C7.63746 6.25894 7.73765 6.39806 7.87146 6.49916C8.00527 6.60026 8.16647 6.65864 8.33398 6.66665H14.1673C14.3883 6.66665 14.6003 6.75445 14.7566 6.91073C14.9129 7.06701 15.0007 7.27897 15.0007 7.49999V8.33332H6.66732C6.47468 8.32861 6.28637 8.39081 6.13443 8.50932C5.98249 8.62783 5.87632 8.79534 5.83398 8.98332L4.47565 15.1833ZM16.1423 15.1833C16.1 15.3713 15.9938 15.5388 15.8419 15.6573C15.6899 15.7758 15.5016 15.838 15.309 15.8333H6.00898C6.05202 15.7405 6.08284 15.6424 6.10065 15.5417L7.33398 9.99999H17.334L16.1423 15.1833Z" fill="#212529"/>
</g>
</svg>
