<svg width="20" height="20" viewBox="0 0 20 20" fill="none" xmlns="http://www.w3.org/2000/svg">
<g id="u:cube">
<path id="Vector" d="M17.0586 6.14165C17.0586 6.14165 17.0586 6.14165 17.0586 6.07498L17.0086 5.94998C16.9912 5.92346 16.9717 5.89838 16.9503 5.87498C16.928 5.8397 16.9029 5.80626 16.8753 5.77498L16.8003 5.71665L16.667 5.64998L10.417 1.79165C10.2845 1.70887 10.1315 1.66498 9.97528 1.66498C9.8191 1.66498 9.66606 1.70887 9.53362 1.79165L3.33362 5.64998L3.25862 5.71665L3.18362 5.77498C3.15599 5.80626 3.13091 5.8397 3.10862 5.87498C3.08719 5.89838 3.06769 5.92346 3.05028 5.94998L3.00028 6.07498C3.00028 6.07498 3.00028 6.07498 3.00028 6.14165C2.99209 6.21364 2.99209 6.28632 3.00028 6.35831V13.6416C3 13.7833 3.03581 13.9226 3.10434 14.0466C3.17287 14.1705 3.27186 14.2749 3.39195 14.35L9.64195 18.2083C9.68042 18.2321 9.72271 18.249 9.76695 18.2583C9.76695 18.2583 9.80862 18.2583 9.83362 18.2583C9.9746 18.303 10.126 18.303 10.2669 18.2583C10.2669 18.2583 10.3086 18.2583 10.3336 18.2583C10.3779 18.249 10.4201 18.2321 10.4586 18.2083L16.667 14.35C16.787 14.2749 16.886 14.1705 16.9546 14.0466C17.0231 13.9226 17.0589 13.7833 17.0586 13.6416V6.35831C17.0668 6.28632 17.0668 6.21364 17.0586 6.14165ZM9.16695 16.0083L4.58362 13.175V7.85831L9.16695 10.6833V16.0083ZM10.0003 9.24165L5.33362 6.35831L10.0003 3.48331L14.667 6.35831L10.0003 9.24165ZM15.417 13.175L10.8336 16.0083V10.6833L15.417 7.85831V13.175Z" fill="#212529"/>
</g>
</svg>
