<svg width="20" height="20" viewBox="0 0 20 20" fill="none" xmlns="http://www.w3.org/2000/svg">
<g id="u:setting">
<path id="Vector" d="M16.5831 10.55C16.4495 10.3979 16.3758 10.2024 16.3758 9.99999C16.3758 9.79757 16.4495 9.60207 16.5831 9.44999L17.6498 8.24999C17.7673 8.11888 17.8403 7.95391 17.8582 7.77875C17.8762 7.60359 17.8382 7.42723 17.7498 7.27499L16.0831 4.39166C15.9955 4.23959 15.8622 4.11906 15.702 4.04723C15.5419 3.97541 15.3632 3.95596 15.1914 3.99166L13.6248 4.30833C13.4254 4.34952 13.2179 4.31632 13.0413 4.21499C12.8648 4.11367 12.7314 3.95123 12.6664 3.75833L12.1581 2.23333C12.1022 2.06781 11.9957 1.92405 11.8536 1.82236C11.7115 1.72068 11.5411 1.66621 11.3664 1.66666H8.03308C7.85136 1.65718 7.67153 1.70743 7.52105 1.80976C7.37058 1.91208 7.25773 2.06084 7.19975 2.23333L6.73308 3.75833C6.66808 3.95123 6.53473 4.11367 6.35818 4.21499C6.18163 4.31632 5.9741 4.34952 5.77475 4.30833L4.16642 3.99166C4.00354 3.96864 3.8375 3.99435 3.68921 4.06553C3.54091 4.13671 3.417 4.25018 3.33308 4.39166L1.66642 7.27499C1.57572 7.42554 1.53494 7.6009 1.5499 7.77601C1.56487 7.95113 1.63482 8.11703 1.74975 8.24999L2.80808 9.44999C2.94168 9.60207 3.01536 9.79757 3.01536 9.99999C3.01536 10.2024 2.94168 10.3979 2.80808 10.55L1.74975 11.75C1.63482 11.883 1.56487 12.0489 1.5499 12.224C1.53494 12.3991 1.57572 12.5745 1.66642 12.725L3.33308 15.6083C3.42067 15.7604 3.55402 15.8809 3.71413 15.9528C3.87424 16.0246 4.05294 16.044 4.22475 16.0083L5.79142 15.6917C5.99077 15.6505 6.1983 15.6837 6.37484 15.785C6.55139 15.8863 6.68475 16.0488 6.74975 16.2417L7.25808 17.7667C7.31607 17.9391 7.42891 18.0879 7.57939 18.1902C7.72986 18.2926 7.9097 18.3428 8.09142 18.3333H11.4248C11.5995 18.3338 11.7699 18.2793 11.9119 18.1776C12.054 18.0759 12.1605 17.9322 12.2164 17.7667L12.7248 16.2417C12.7898 16.0488 12.9231 15.8863 13.0997 15.785C13.2762 15.6837 13.4837 15.6505 13.6831 15.6917L15.2498 16.0083C15.4216 16.044 15.6003 16.0246 15.7604 15.9528C15.9205 15.8809 16.0538 15.7604 16.1414 15.6083L17.8081 12.725C17.8966 12.5728 17.9345 12.3964 17.9166 12.2212C17.8986 12.0461 17.8256 11.8811 17.7081 11.75L16.5831 10.55ZM15.3414 11.6667L16.0081 12.4167L14.9414 14.2667L13.9581 14.0667C13.3579 13.944 12.7336 14.0459 12.2036 14.3532C11.6736 14.6604 11.2749 15.1515 11.0831 15.7333L10.7664 16.6667H8.63308L8.33308 15.7167C8.1413 15.1349 7.74257 14.6437 7.21259 14.3365C6.68261 14.0293 6.05827 13.9273 5.45808 14.05L4.47475 14.25L3.39142 12.4083L4.05808 11.6583C4.46805 11.2 4.69469 10.6066 4.69469 9.99166C4.69469 9.37672 4.46805 8.78335 4.05808 8.32499L3.39142 7.57499L4.45808 5.74166L5.44142 5.94166C6.0416 6.06435 6.66594 5.96239 7.19592 5.65516C7.7259 5.34792 8.12463 4.85679 8.31642 4.27499L8.63308 3.33333H10.7664L11.0831 4.28333C11.2749 4.86513 11.6736 5.35626 12.2036 5.66349C12.7336 5.97073 13.3579 6.07268 13.9581 5.94999L14.9414 5.74999L16.0081 7.59999L15.3414 8.34999C14.9361 8.80729 14.7122 9.39723 14.7122 10.0083C14.7122 10.6194 14.9361 11.2094 15.3414 11.6667ZM9.69975 6.66666C9.04048 6.66666 8.39601 6.86216 7.84785 7.22843C7.29969 7.5947 6.87244 8.1153 6.62015 8.72438C6.36786 9.33347 6.30185 10.0037 6.43047 10.6503C6.55908 11.2969 6.87655 11.8908 7.34273 12.357C7.8089 12.8232 8.40285 13.1407 9.04945 13.2693C9.69605 13.3979 10.3663 13.3319 10.9754 13.0796C11.5844 12.8273 12.105 12.4001 12.4713 11.8519C12.8376 11.3037 13.0331 10.6593 13.0331 9.99999C13.0331 9.11594 12.6819 8.26809 12.0568 7.64297C11.4317 7.01785 10.5838 6.66666 9.69975 6.66666ZM9.69975 11.6667C9.37012 11.6667 9.04788 11.5689 8.7738 11.3858C8.49972 11.2026 8.2861 10.9423 8.15995 10.6378C8.03381 10.3333 8.0008 9.99815 8.06511 9.67484C8.12942 9.35154 8.28815 9.05457 8.52124 8.82148C8.75433 8.5884 9.0513 8.42966 9.3746 8.36535C9.6979 8.30104 10.033 8.33405 10.3376 8.4602C10.6421 8.58634 10.9024 8.79996 11.0855 9.07404C11.2687 9.34813 11.3664 9.67036 11.3664 9.99999C11.3664 10.442 11.1908 10.8659 10.8783 11.1785C10.5657 11.4911 10.1418 11.6667 9.69975 11.6667Z" fill="#212529"/>
</g>
</svg>
