<svg width="39" height="40" viewBox="0 0 39 40" fill="none" xmlns="http://www.w3.org/2000/svg">
<mask id="path-1-inside-1_290_3169" fill="white">
<path d="M0 0H39V40H0V0Z"/>
</mask>
<path d="M0 0H39V40H0V0Z" fill="white"/>
<path d="M0 1H39V-1H0V1ZM39 39H0V41H39V39Z" fill="#F0F1F1" mask="url(#path-1-inside-1_290_3169)"/>
<path d="M3.5 11C3.5 6.85786 6.85786 3.5 11 3.5H29C33.1421 3.5 36.5 6.85786 36.5 11V29C36.5 33.1421 33.1421 36.5 29 36.5H11C6.85786 36.5 3.5 33.1421 3.5 29V11Z" fill="#1C94A3" stroke="#1C94A3"/>
<path fill-rule="evenodd" clip-rule="evenodd" d="M27.4978 11.8058L28.192 12.5L28.1881 12.4993C28.8872 13.1979 29.2801 14.1457 29.2801 15.1341C29.2801 16.1224 28.8872 17.0703 28.1881 17.7689L23.6742 22.2828C22.9769 22.9835 22.0282 23.3758 21.0398 23.3724C20.0515 23.3757 19.1031 22.9834 18.4061 22.2828C18.1993 22.0883 18.1148 21.7966 18.1856 21.5216C18.2565 21.2467 18.4715 21.0321 18.7466 20.9618C19.0217 20.8915 19.3133 20.9767 19.5074 21.1839C19.9128 21.5918 20.4646 21.8205 21.0398 21.819C21.6155 21.8204 22.1679 21.5915 22.5737 21.1831L27.0876 16.6692C27.4947 16.2625 27.7235 15.7107 27.7235 15.1352C27.7235 14.5598 27.4947 14.008 27.0876 13.6013L26.3927 12.9063C25.5451 12.0607 24.1731 12.0607 23.3255 12.9063L21.0685 15.1633C20.7632 15.4582 20.2778 15.454 19.9776 15.1538C19.6774 14.8536 19.6731 14.3682 19.9681 14.0628L22.2289 11.8058C23.6862 10.3564 26.0406 10.3564 27.4978 11.8058ZM16.6698 27.0902L18.7999 24.9608L18.8022 24.9585C18.999 24.7619 19.2856 24.6852 19.5542 24.7573C19.8228 24.8294 20.0326 25.0393 20.1044 25.3079C20.1763 25.5766 20.0994 25.8632 19.9027 26.0597L17.7734 28.1883C17.0749 28.8876 16.127 29.2806 15.1386 29.2806C14.1501 29.2806 13.2023 28.8876 12.5038 28.1883L11.8095 27.4949C11.1108 26.7962 10.7183 25.8485 10.7183 24.8604C10.7183 23.8723 11.1108 22.9247 11.8095 22.226L16.3235 17.7121C17.7792 16.2583 20.1374 16.2583 21.5931 17.7121L22.2881 18.4063C22.5928 18.711 22.5928 19.2051 22.2881 19.5099C21.9833 19.8146 21.4893 19.8146 21.1845 19.5099L20.4895 18.8157C19.6421 17.9692 18.2691 17.9692 17.4216 18.8157L12.9077 23.3296C12.0608 24.1766 12.0608 25.5497 12.9077 26.3967L13.6019 27.0902C14.4601 27.9102 15.8116 27.9102 16.6698 27.0902Z" fill="white"/>
<mask id="mask0_290_3169" style="mask-type:alpha" maskUnits="userSpaceOnUse" x="10" y="10" width="20" height="20">
<path fill-rule="evenodd" clip-rule="evenodd" d="M27.4978 11.8058L28.192 12.5L28.1881 12.4993C28.8872 13.1979 29.2801 14.1457 29.2801 15.1341C29.2801 16.1224 28.8872 17.0703 28.1881 17.7689L23.6742 22.2828C22.9769 22.9835 22.0282 23.3758 21.0398 23.3724C20.0515 23.3757 19.1031 22.9834 18.4061 22.2828C18.1993 22.0883 18.1148 21.7966 18.1856 21.5216C18.2565 21.2467 18.4715 21.0321 18.7466 20.9618C19.0217 20.8915 19.3133 20.9767 19.5074 21.1839C19.9128 21.5918 20.4646 21.8205 21.0398 21.819C21.6155 21.8204 22.1679 21.5915 22.5737 21.1831L27.0876 16.6692C27.4947 16.2625 27.7235 15.7107 27.7235 15.1352C27.7235 14.5598 27.4947 14.008 27.0876 13.6013L26.3927 12.9063C25.5451 12.0607 24.1731 12.0607 23.3255 12.9063L21.0685 15.1633C20.7632 15.4582 20.2778 15.454 19.9776 15.1538C19.6774 14.8536 19.6731 14.3682 19.9681 14.0628L22.2289 11.8058C23.6862 10.3564 26.0406 10.3564 27.4978 11.8058ZM16.6698 27.0902L18.7999 24.9608L18.8022 24.9585C18.999 24.7619 19.2856 24.6852 19.5542 24.7573C19.8228 24.8294 20.0326 25.0393 20.1044 25.3079C20.1763 25.5766 20.0994 25.8632 19.9027 26.0597L17.7734 28.1883C17.0749 28.8876 16.127 29.2806 15.1386 29.2806C14.1501 29.2806 13.2023 28.8876 12.5038 28.1883L11.8095 27.4949C11.1108 26.7962 10.7183 25.8485 10.7183 24.8604C10.7183 23.8723 11.1108 22.9247 11.8095 22.226L16.3235 17.7121C17.7792 16.2583 20.1374 16.2583 21.5931 17.7121L22.2881 18.4063C22.5928 18.711 22.5928 19.2051 22.2881 19.5099C21.9833 19.8146 21.4893 19.8146 21.1845 19.5099L20.4895 18.8157C19.6421 17.9692 18.2691 17.9692 17.4216 18.8157L12.9077 23.3296C12.0608 24.1766 12.0608 25.5497 12.9077 26.3967L13.6019 27.0902C14.4601 27.9102 15.8116 27.9102 16.6698 27.0902Z" fill="white"/>
</mask>
<g mask="url(#mask0_290_3169)">
</g>
</svg>
