<svg width="26" height="26" viewBox="0 0 26 26" fill="none" xmlns="http://www.w3.org/2000/svg">
<path d="M4.64305 13.3951L9.99136 18.7379C10.2168 18.9633 10.5559 19.0307 10.8504 18.9087C11.145 18.7867 11.337 18.4993 11.3371 18.1805V15.7815C11.3371 15.6727 11.4254 15.5844 11.5342 15.5844H20.7976C21.233 15.5844 21.5859 15.2315 21.5859 14.796V11.2484C21.5859 10.813 21.233 10.46 20.7976 10.46H11.5342C11.4254 10.46 11.3371 10.3718 11.3371 10.2629V7.81896C11.3371 7.60919 11.2535 7.40806 11.1048 7.2601C10.9561 7.11214 10.7546 7.02954 10.5448 7.03059C10.3454 7.03133 10.1539 7.10833 10.0095 7.24581L4.66355 12.2575C4.50592 12.4034 4.41462 12.6072 4.41075 12.8219C4.40688 13.0367 4.49078 13.2437 4.64305 13.3951Z" fill="#A7B3B4"/>
<mask id="mask0_472_19652" style="mask-type:alpha" maskUnits="userSpaceOnUse" x="4" y="7" width="18" height="12">
<path d="M4.64305 13.3951L9.99136 18.7379C10.2168 18.9633 10.5559 19.0307 10.8504 18.9087C11.145 18.7867 11.337 18.4993 11.3371 18.1805V15.7815C11.3371 15.6727 11.4254 15.5844 11.5342 15.5844H20.7976C21.233 15.5844 21.5859 15.2315 21.5859 14.796V11.2484C21.5859 10.813 21.233 10.46 20.7976 10.46H11.5342C11.4254 10.46 11.3371 10.3718 11.3371 10.2629V7.81896C11.3371 7.60919 11.2535 7.40806 11.1048 7.2601C10.9561 7.11214 10.7546 7.02954 10.5448 7.03059C10.3454 7.03133 10.1539 7.10833 10.0095 7.24581L4.66355 12.2575C4.50592 12.4034 4.41462 12.6072 4.41075 12.8219C4.40688 13.0367 4.49078 13.2437 4.64305 13.3951Z" fill="white"/>
</mask>
<g mask="url(#mask0_472_19652)">
</g>
</svg>
