<svg width="26" height="26" viewBox="0 0 26 26" fill="none" xmlns="http://www.w3.org/2000/svg">
<path d="M21.3569 12.6049L16.0086 7.2621C15.7832 7.0367 15.4441 6.96928 15.1496 7.09127C14.855 7.21327 14.663 7.50066 14.6629 7.81948V10.2185C14.6629 10.3273 14.5746 10.4156 14.4658 10.4156H5.20243C4.76703 10.4156 4.41406 10.7685 4.41406 11.204V14.7516C4.41406 15.187 4.76703 15.54 5.20243 15.54H14.4658C14.5746 15.54 14.6629 15.6282 14.6629 15.7371V18.181C14.6629 18.3908 14.7465 18.5919 14.8952 18.7399C15.0439 18.8879 15.2454 18.9705 15.4552 18.9694C15.6546 18.9687 15.8461 18.8917 15.9905 18.7542L21.3365 13.7425C21.4941 13.5966 21.5854 13.3928 21.5892 13.1781C21.5931 12.9633 21.5092 12.7563 21.3569 12.6049Z" fill="#A7B3B4"/>
<mask id="mask0_472_21594" style="mask-type:alpha" maskUnits="userSpaceOnUse" x="4" y="7" width="18" height="12">
<path d="M21.3569 12.6049L16.0086 7.2621C15.7832 7.0367 15.4441 6.96928 15.1496 7.09127C14.855 7.21327 14.663 7.50066 14.6629 7.81948V10.2185C14.6629 10.3273 14.5746 10.4156 14.4658 10.4156H5.20243C4.76703 10.4156 4.41406 10.7685 4.41406 11.204V14.7516C4.41406 15.187 4.76703 15.54 5.20243 15.54H14.4658C14.5746 15.54 14.6629 15.6282 14.6629 15.7371V18.181C14.6629 18.3908 14.7465 18.5919 14.8952 18.7399C15.0439 18.8879 15.2454 18.9705 15.4552 18.9694C15.6546 18.9687 15.8461 18.8917 15.9905 18.7542L21.3365 13.7425C21.4941 13.5966 21.5854 13.3928 21.5892 13.1781C21.5931 12.9633 21.5092 12.7563 21.3569 12.6049Z" fill="white"/>
</mask>
<g mask="url(#mask0_472_21594)">
</g>
</svg>
