<svg width="26" height="26" viewBox="0 0 26 26" fill="none" xmlns="http://www.w3.org/2000/svg">
<path d="M12.6059 4.64305L7.26307 9.99136C7.03767 10.2168 6.97026 10.5559 7.09225 10.8504C7.21425 11.145 7.50164 11.337 7.82045 11.3371H10.2195C10.3283 11.3371 10.4166 11.4254 10.4166 11.5342V20.7976C10.4166 21.233 10.7695 21.5859 11.2049 21.5859H14.7526C15.188 21.5859 15.541 21.233 15.541 20.7976V11.5342C15.541 11.4254 15.6292 11.3371 15.7381 11.3371H18.182C18.3918 11.3371 18.5929 11.2535 18.7409 11.1048C18.8888 10.9561 18.9714 10.7546 18.9704 10.5448C18.9697 10.3454 18.8926 10.1539 18.7552 10.0095L13.7435 4.66355C13.5976 4.50592 13.3938 4.41462 13.179 4.41075C12.9643 4.40688 12.7573 4.49078 12.6059 4.64305Z" fill="#A7B3B4"/>
<mask id="mask0_472_21599" style="mask-type:alpha" maskUnits="userSpaceOnUse" x="7" y="4" width="12" height="18">
<path d="M12.6059 4.64305L7.26307 9.99136C7.03767 10.2168 6.97026 10.5559 7.09225 10.8504C7.21425 11.145 7.50164 11.337 7.82045 11.3371H10.2195C10.3283 11.3371 10.4166 11.4254 10.4166 11.5342V20.7976C10.4166 21.233 10.7695 21.5859 11.2049 21.5859H14.7526C15.188 21.5859 15.541 21.233 15.541 20.7976V11.5342C15.541 11.4254 15.6292 11.3371 15.7381 11.3371H18.182C18.3918 11.3371 18.5929 11.2535 18.7409 11.1048C18.8888 10.9561 18.9714 10.7546 18.9704 10.5448C18.9697 10.3454 18.8926 10.1539 18.7552 10.0095L13.7435 4.66355C13.5976 4.50592 13.3938 4.41462 13.179 4.41075C12.9643 4.40688 12.7573 4.49078 12.6059 4.64305Z" fill="white"/>
</mask>
<g mask="url(#mask0_472_21599)">
</g>
</svg>
