<svg width="26" height="26" viewBox="0 0 26 26" fill="none" xmlns="http://www.w3.org/2000/svg">
<path d="M13.3941 21.3569L18.7369 16.0086C18.9623 15.7832 19.0297 15.4441 18.9077 15.1496C18.7858 14.855 18.4984 14.663 18.1795 14.6629H15.7805C15.6717 14.6629 15.5834 14.5746 15.5834 14.4658V5.20243C15.5834 4.76703 15.2305 4.41406 14.7951 4.41406H11.2474C10.812 4.41406 10.459 4.76703 10.459 5.20243V14.4658C10.459 14.5746 10.3708 14.6629 10.2619 14.6629H7.81798C7.60821 14.6629 7.40709 14.7465 7.25912 14.8952C7.11116 15.0439 7.02856 15.2454 7.02961 15.4552C7.03035 15.6546 7.10736 15.8461 7.24484 15.9905L12.2565 21.3365C12.4024 21.4941 12.6062 21.5854 12.821 21.5892C13.0357 21.5931 13.2427 21.5092 13.3941 21.3569Z" fill="#A7B3B4"/>
<mask id="mask0_472_21604" style="mask-type:alpha" maskUnits="userSpaceOnUse" x="7" y="4" width="12" height="18">
<path d="M13.3941 21.3569L18.7369 16.0086C18.9623 15.7832 19.0297 15.4441 18.9077 15.1496C18.7858 14.855 18.4984 14.663 18.1795 14.6629H15.7805C15.6717 14.6629 15.5834 14.5746 15.5834 14.4658V5.20243C15.5834 4.76703 15.2305 4.41406 14.7951 4.41406H11.2474C10.812 4.41406 10.459 4.76703 10.459 5.20243V14.4658C10.459 14.5746 10.3708 14.6629 10.2619 14.6629H7.81798C7.60821 14.6629 7.40709 14.7465 7.25912 14.8952C7.11116 15.0439 7.02856 15.2454 7.02961 15.4552C7.03035 15.6546 7.10736 15.8461 7.24484 15.9905L12.2565 21.3365C12.4024 21.4941 12.6062 21.5854 12.821 21.5892C13.0357 21.5931 13.2427 21.5092 13.3941 21.3569Z" fill="white"/>
</mask>
<g mask="url(#mask0_472_21604)">
</g>
</svg>
