<svg width="39" height="40" viewBox="0 0 39 40" fill="none" xmlns="http://www.w3.org/2000/svg">
<mask id="path-1-inside-1_290_3123" fill="white">
<path d="M0 0H39V40H0V0Z"/>
</mask>
<path d="M0 0H39V40H0V0Z" fill="white"/>
<path d="M0 1H39V-1H0V1ZM39 39H0V41H39V39Z" fill="#F0F1F1" mask="url(#path-1-inside-1_290_3123)"/>
<path d="M3.5 11C3.5 6.85786 6.85786 3.5 11 3.5H29C33.1421 3.5 36.5 6.85786 36.5 11V29C36.5 33.1421 33.1421 36.5 29 36.5H11C6.85786 36.5 3.5 33.1421 3.5 29V11Z" fill="#1C94A3" stroke="#1C94A3"/>
<path fill-rule="evenodd" clip-rule="evenodd" d="M28.5154 19.6055L29.5225 23.203C29.8005 24.1961 29.2208 25.2266 28.2278 25.5049C24.0448 26.6671 21.3085 27.4391 19.491 27.9519L19.4906 27.9521L19.4905 27.9521L19.4904 27.9521C16.3238 28.8455 15.9465 28.952 15.5661 28.9646C15.5147 28.9664 15.4632 28.9664 15.4047 28.9664C15.2792 28.9664 15.1552 28.9604 15.0311 28.9492C13.0878 28.708 11.6364 27.0446 11.6608 25.0865V12.903C11.6608 11.8714 12.4971 11.0352 13.5287 11.0352H17.2643C18.2959 11.0352 19.1322 11.8714 19.1322 12.903V14.1193C19.1329 14.1982 19.1829 14.2682 19.2573 14.2945C19.3317 14.3207 19.4146 14.2976 19.4646 14.2366L20.2275 13.29C20.5385 12.9043 20.9901 12.6581 21.4827 12.6054C21.9754 12.5527 22.4688 12.6979 22.8544 13.0091L25.7622 15.3536C26.5651 16.0011 26.6912 17.1767 26.0439 17.9798L25.6502 18.4676L26.2135 18.31C27.2069 18.0321 28.2375 18.6121 28.5154 19.6055ZM21.9137 14.1716C21.7536 14.0436 21.5202 14.0686 21.3907 14.2277L19.174 16.9771C19.147 17.0102 19.1322 17.0517 19.1322 17.0944V23.64C19.134 23.7178 19.1839 23.7863 19.2574 23.8119C19.3309 23.8375 19.4126 23.8149 19.4624 23.7551L24.8776 17.0399C25.0058 16.8799 24.9811 16.6465 24.8223 16.5169L21.9137 14.1716ZM15.3965 17.7594C16.2218 17.7594 16.8908 18.4284 16.8908 19.2536C16.8908 20.0789 16.2218 20.7479 15.3965 20.7479C14.5712 20.7479 13.9022 20.0789 13.9022 19.2536C13.9022 18.4284 14.5712 17.7594 15.3965 17.7594ZM15.3965 12.903C14.5712 12.903 13.9022 13.572 13.9022 14.3973C13.9022 14.7936 14.0597 15.1736 14.3399 15.4539C14.6201 15.7341 15.0002 15.8915 15.3965 15.8915C16.2218 15.8915 16.8908 15.2225 16.8908 14.3973C16.8908 13.572 16.2218 12.903 15.3965 12.903ZM15.3965 22.6157C16.2218 22.6157 16.8908 23.2847 16.8908 24.11C16.8908 24.9353 16.2218 25.6043 15.3965 25.6043C14.5712 25.6043 13.9022 24.9353 13.9022 24.11C13.9022 23.2847 14.5712 22.6157 15.3965 22.6157ZM19.7463 26.3275L27.8243 24.0659C27.92 24.0393 28.0012 23.9756 28.0499 23.8889C28.0985 23.8023 28.1107 23.6998 28.0836 23.6042L27.0764 20.0067C27.0209 19.8081 26.8149 19.692 26.6162 19.7475L24.0909 20.4543C24.0536 20.465 24.0205 20.4869 23.996 20.517L19.5506 26.0286C19.498 26.0917 19.4928 26.1818 19.5378 26.2505C19.5828 26.3192 19.6674 26.3504 19.7463 26.3275Z" fill="white"/>
<mask id="mask0_290_3123" style="mask-type:alpha" maskUnits="userSpaceOnUse" x="11" y="11" width="19" height="18">
<path fill-rule="evenodd" clip-rule="evenodd" d="M28.5154 19.6055L29.5225 23.203C29.8005 24.1961 29.2208 25.2266 28.2278 25.5049C24.0448 26.6671 21.3085 27.4391 19.491 27.9519L19.4906 27.9521L19.4905 27.9521L19.4904 27.9521C16.3238 28.8455 15.9465 28.952 15.5661 28.9646C15.5147 28.9664 15.4632 28.9664 15.4047 28.9664C15.2792 28.9664 15.1552 28.9604 15.0311 28.9492C13.0878 28.708 11.6364 27.0446 11.6608 25.0865V12.903C11.6608 11.8714 12.4971 11.0352 13.5287 11.0352H17.2643C18.2959 11.0352 19.1322 11.8714 19.1322 12.903V14.1193C19.1329 14.1982 19.1829 14.2682 19.2573 14.2945C19.3317 14.3207 19.4146 14.2976 19.4646 14.2366L20.2275 13.29C20.5385 12.9043 20.9901 12.6581 21.4827 12.6054C21.9754 12.5527 22.4688 12.6979 22.8544 13.0091L25.7622 15.3536C26.5651 16.0011 26.6912 17.1767 26.0439 17.9798L25.6502 18.4676L26.2135 18.31C27.2069 18.0321 28.2375 18.6121 28.5154 19.6055ZM21.9137 14.1716C21.7536 14.0436 21.5202 14.0686 21.3907 14.2277L19.174 16.9771C19.147 17.0102 19.1322 17.0517 19.1322 17.0944V23.64C19.134 23.7178 19.1839 23.7863 19.2574 23.8119C19.3309 23.8375 19.4126 23.8149 19.4624 23.7551L24.8776 17.0399C25.0058 16.8799 24.9811 16.6465 24.8223 16.5169L21.9137 14.1716ZM15.3965 17.7594C16.2218 17.7594 16.8908 18.4284 16.8908 19.2536C16.8908 20.0789 16.2218 20.7479 15.3965 20.7479C14.5712 20.7479 13.9022 20.0789 13.9022 19.2536C13.9022 18.4284 14.5712 17.7594 15.3965 17.7594ZM15.3965 12.903C14.5712 12.903 13.9022 13.572 13.9022 14.3973C13.9022 14.7936 14.0597 15.1736 14.3399 15.4539C14.6201 15.7341 15.0002 15.8915 15.3965 15.8915C16.2218 15.8915 16.8908 15.2225 16.8908 14.3973C16.8908 13.572 16.2218 12.903 15.3965 12.903ZM15.3965 22.6157C16.2218 22.6157 16.8908 23.2847 16.8908 24.11C16.8908 24.9353 16.2218 25.6043 15.3965 25.6043C14.5712 25.6043 13.9022 24.9353 13.9022 24.11C13.9022 23.2847 14.5712 22.6157 15.3965 22.6157ZM19.7463 26.3275L27.8243 24.0659C27.92 24.0393 28.0012 23.9756 28.0499 23.8889C28.0985 23.8023 28.1107 23.6998 28.0836 23.6042L27.0764 20.0067C27.0209 19.8081 26.8149 19.692 26.6162 19.7475L24.0909 20.4543C24.0536 20.465 24.0205 20.4869 23.996 20.517L19.5506 26.0286C19.498 26.0917 19.4928 26.1818 19.5378 26.2505C19.5828 26.3192 19.6674 26.3504 19.7463 26.3275Z" fill="white"/>
</mask>
<g mask="url(#mask0_290_3123)">
</g>
</svg>
