<svg width="16" height="16" viewBox="0 0 16 16" fill="none" xmlns="http://www.w3.org/2000/svg">
<path d="M8.00005 14.2218C11.4365 14.2218 14.2223 11.436 14.2223 7.99957C14.2223 4.56313 11.4365 1.77734 8.00005 1.77734C4.56362 1.77734 1.77783 4.56313 1.77783 7.99957C1.77783 11.436 4.56362 14.2218 8.00005 14.2218Z" stroke="#DADADA"/>
<path d="M8.00011 4.90234C6.92794 4.90234 6.05566 5.77462 6.05566 6.84679C6.05566 7.11527 6.2733 7.3329 6.54178 7.3329C6.81025 7.3329 7.02789 7.11527 7.02789 6.84679C7.02789 6.3107 7.46403 5.87457 8.00011 5.87457C8.53619 5.87457 8.97233 6.3107 8.97233 6.84679C8.97233 7.38287 8.53619 7.81901 8.00011 7.81901C7.73163 7.81901 7.514 8.03664 7.514 8.30512V9.5204C7.514 9.78888 7.73163 10.0065 8.00011 10.0065C8.26859 10.0065 8.48622 9.78888 8.48622 9.5204V8.72972C9.32393 8.51332 9.94455 7.75117 9.94455 6.84679C9.94455 5.77462 9.07228 4.90234 8.00011 4.90234Z" fill="#DADADA"/>
<path d="M8.00004 11.8077C8.45823 11.8077 8.82967 11.4363 8.82967 10.9781C8.82967 10.5199 8.45823 10.1484 8.00004 10.1484C7.54185 10.1484 7.17041 10.5199 7.17041 10.9781C7.17041 11.4363 7.54185 11.8077 8.00004 11.8077Z" fill="#DADADA"/>
</svg>
