<svg width="40" height="40" viewBox="0 0 40 40" fill="none" xmlns="http://www.w3.org/2000/svg">
<mask id="path-1-inside-1_290_3207" fill="white">
<path d="M0 0H32C36.4183 0 40 3.58172 40 8V32C40 36.4183 36.4183 40 32 40H0V0Z"/>
</mask>
<path d="M0 0H32C36.4183 0 40 3.58172 40 8V32C40 36.4183 36.4183 40 32 40H0V0Z" fill="white"/>
<path d="M0 -1H32C36.9706 -1 41 3.02944 41 8H39C39 4.13401 35.866 1 32 1H0V-1ZM41 32C41 36.9706 36.9706 41 32 41H0V39H32C35.866 39 39 35.866 39 32H41ZM0 40V0V40ZM32 -1C36.9706 -1 41 3.02944 41 8V32C41 36.9706 36.9706 41 32 41V39C35.866 39 39 35.866 39 32V8C39 4.13401 35.866 1 32 1V-1Z" fill="#F0F1F1" mask="url(#path-1-inside-1_290_3207)"/>
<path d="M3.5 11C3.5 6.85786 6.85786 3.5 11 3.5H29C33.1421 3.5 36.5 6.85786 36.5 11V29C36.5 33.1421 33.1421 36.5 29 36.5H11C6.85786 36.5 3.5 33.1421 3.5 29V11Z" fill="#1C94A3" stroke="#1C94A3"/>
<path d="M27.0044 14.1641L25.5942 27.5572C25.511 28.3492 24.8433 28.9507 24.047 28.9511H15.953C15.1564 28.9511 14.4883 28.3495 14.4051 27.5572L12.9956 14.1641" stroke="white"/>
<path d="M11.05 14.1641H28.95" stroke="white"/>
<path d="M16.4978 14.1638V11.829C16.4978 11.3992 16.8463 11.0508 17.2761 11.0508H22.7239C23.1538 11.0508 23.5022 11.3992 23.5022 11.829V14.1638" stroke="white"/>
<path d="M20 17.666V25.8378" stroke="white"/>
<path d="M23.5022 17.666L23.1131 25.8378" stroke="white"/>
<path d="M16.4978 17.666L16.8869 25.8378" stroke="white"/>
</svg>
