<svg width="39" height="40" viewBox="0 0 39 40" fill="none" xmlns="http://www.w3.org/2000/svg">
<mask id="path-1-inside-1_290_2821" fill="white">
<path d="M0 0H39V40H0V0Z"/>
</mask>
<path d="M0 0H39V40H0V0Z" fill="white"/>
<path d="M0 1H39V-1H0V1ZM39 39H0V41H39V39Z" fill="#F0F1F1" mask="url(#path-1-inside-1_290_2821)"/>
<path d="M3.5 11C3.5 6.85786 6.85786 3.5 11 3.5H29C33.1421 3.5 36.5 6.85786 36.5 11V29C36.5 33.1421 33.1421 36.5 29 36.5H11C6.85786 36.5 3.5 33.1421 3.5 29V11Z" fill="white" stroke="#1C94A3"/>
<path fill-rule="evenodd" clip-rule="evenodd" d="M27.2013 13.9032L24.7706 11.3298C24.4788 11.0358 24.0812 10.8712 23.6669 10.8731H16.8867C16.0276 10.874 15.3313 11.5702 15.3304 12.4293V13.8446H13.9151C13.056 13.8456 12.3598 14.5418 12.3589 15.4009V27.5706C12.3598 28.4297 13.056 29.126 13.9151 29.1269H23.1133C23.9724 29.126 24.6686 28.4297 24.6696 27.5706V26.1553H26.0849C26.944 26.1544 27.6402 25.4582 27.6411 24.5991V14.9908C27.6451 14.5842 27.4868 14.1928 27.2013 13.9032ZM22.547 27.4289H14.4814C14.2469 27.4289 14.0569 27.2388 14.0569 27.0044V15.9672C14.0569 15.7327 14.2469 15.5426 14.4814 15.5426H15.1182C15.2354 15.5426 15.3304 15.6377 15.3304 15.7549V24.5991C15.3304 25.4586 16.0272 26.1553 16.8867 26.1553H22.7593C22.8765 26.1553 22.9715 26.2504 22.9715 26.3676V27.0044C22.9715 27.2388 22.7815 27.4289 22.547 27.4289ZM17.4529 24.4573H25.5186C25.753 24.4573 25.9431 24.2672 25.9431 24.0328V15.2115C25.9429 15.1032 25.9013 14.999 25.8268 14.9203L23.734 12.7044C23.6539 12.6195 23.5425 12.5713 23.4258 12.5711H17.4529C17.2185 12.5711 17.0284 12.7612 17.0284 12.9956V24.0328C17.0284 24.2672 17.2185 24.4573 17.4529 24.4573Z" fill="#1C94A3"/>
<mask id="mask0_290_2821" style="mask-type:alpha" maskUnits="userSpaceOnUse" x="12" y="10" width="16" height="20">
<path fill-rule="evenodd" clip-rule="evenodd" d="M27.2013 13.9032L24.7706 11.3298C24.4788 11.0358 24.0812 10.8712 23.6669 10.8731H16.8867C16.0276 10.874 15.3313 11.5702 15.3304 12.4293V13.8446H13.9151C13.056 13.8456 12.3598 14.5418 12.3589 15.4009V27.5706C12.3598 28.4297 13.056 29.126 13.9151 29.1269H23.1133C23.9724 29.126 24.6686 28.4297 24.6696 27.5706V26.1553H26.0849C26.944 26.1544 27.6402 25.4582 27.6411 24.5991V14.9908C27.6451 14.5842 27.4868 14.1928 27.2013 13.9032ZM22.547 27.4289H14.4814C14.2469 27.4289 14.0569 27.2388 14.0569 27.0044V15.9672C14.0569 15.7327 14.2469 15.5426 14.4814 15.5426H15.1182C15.2354 15.5426 15.3304 15.6377 15.3304 15.7549V24.5991C15.3304 25.4586 16.0272 26.1553 16.8867 26.1553H22.7593C22.8765 26.1553 22.9715 26.2504 22.9715 26.3676V27.0044C22.9715 27.2388 22.7815 27.4289 22.547 27.4289ZM17.4529 24.4573H25.5186C25.753 24.4573 25.9431 24.2672 25.9431 24.0328V15.2115C25.9429 15.1032 25.9013 14.999 25.8268 14.9203L23.734 12.7044C23.6539 12.6195 23.5425 12.5713 23.4258 12.5711H17.4529C17.2185 12.5711 17.0284 12.7612 17.0284 12.9956V24.0328C17.0284 24.2672 17.2185 24.4573 17.4529 24.4573Z" fill="white"/>
</mask>
<g mask="url(#mask0_290_2821)">
</g>
</svg>
