<svg width="16" height="16" viewBox="0 0 16 16" fill="none" xmlns="http://www.w3.org/2000/svg">
<path d="M8 10.8606L4.97467 8.02375L5.446 7.57438L7.66667 9.65625V3H8.33333V9.65625L10.5533 7.575L11.0253 8.02375L8 10.8606ZM3.07667 13C2.77 13 2.514 12.9038 2.30867 12.7113C2.10289 12.5183 2 12.2781 2 11.9906V10.4762H2.66667V11.9906C2.66667 12.0865 2.70933 12.1746 2.79467 12.255C2.88044 12.335 2.97444 12.375 3.07667 12.375H12.9233C13.0256 12.375 13.1196 12.335 13.2053 12.255C13.2907 12.1746 13.3333 12.0865 13.3333 11.9906V10.4762H14V11.9906C14 12.2781 13.8973 12.5181 13.692 12.7106C13.4862 12.9035 13.23 13 12.9233 13H3.07667Z" fill="#D7D8DF"/>
</svg>
