<svg width="24" height="24" viewBox="0 0 24 24" fill="none" xmlns="http://www.w3.org/2000/svg">
<path d="M20 3.99913C19.6173 4.00023 19.2385 4.07492 18.884 4.21913C18.7697 3.77643 18.5545 3.3662 18.2552 3.02059C17.9558 2.67499 17.5806 2.40339 17.1587 2.22709C16.7368 2.0508 16.2799 1.97458 15.8237 2.00443C15.3674 2.03428 14.9243 2.16938 14.529 2.39913C14.2608 1.97036 13.888 1.61681 13.4456 1.37172C13.0032 1.12663 12.5057 0.998047 12 0.998047C11.4943 0.998047 10.9968 1.12663 10.5544 1.37172C10.112 1.61681 9.7392 1.97036 9.471 2.39913C9.02387 2.13996 8.5168 2.00208 8 1.99913C7.20435 1.99913 6.44129 2.3152 5.87868 2.87781C5.31607 3.44042 5 4.20348 5 4.99913V8.02513C4.13961 7.36333 3.08547 7.00281 2 6.99913C1.73478 6.99913 1.48043 7.10449 1.29289 7.29203C1.10536 7.47956 1 7.73392 1 7.99913V13.9991C1.00265 16.3853 1.95171 18.6729 3.63896 20.3602C5.32622 22.0474 7.61386 22.9965 10 22.9991H14C16.3861 22.9965 18.6738 22.0474 20.361 20.3602C22.0483 18.6729 22.9974 16.3853 23 13.9991V7.99913C23 5.05013 21.45 3.99913 20 3.99913ZM21 13.9991C20.9976 15.8549 20.2594 17.634 18.9471 18.9463C17.6349 20.2585 15.8558 20.9968 14 20.9991H10C8.14422 20.9968 6.36512 20.2585 5.05288 18.9463C3.74064 17.634 3.00238 15.8549 3 13.9991V9.17013C3.58451 9.37772 4.09049 9.76103 4.44856 10.2675C4.80662 10.774 4.99924 11.3789 5 11.9991C5 12.2644 5.10536 12.5187 5.29289 12.7062C5.48043 12.8938 5.73478 12.9991 6 12.9991C6.26522 12.9991 6.51957 12.8938 6.70711 12.7062C6.89464 12.5187 7 12.2644 7 11.9991V4.99913C7 4.73392 7.10536 4.47956 7.29289 4.29203C7.48043 4.10449 7.73478 3.99913 8 3.99913C8.26522 3.99913 8.51957 4.10449 8.70711 4.29203C8.89464 4.47956 9 4.73392 9 4.99913V9.99913C9 10.2644 9.10536 10.5187 9.29289 10.7062C9.48043 10.8938 9.73478 10.9991 10 10.9991C10.2652 10.9991 10.5196 10.8938 10.7071 10.7062C10.8946 10.5187 11 10.2644 11 9.99913V3.99913C11 3.73392 11.1054 3.47956 11.2929 3.29203C11.4804 3.10449 11.7348 2.99913 12 2.99913C12.2652 2.99913 12.5196 3.10449 12.7071 3.29203C12.8946 3.47956 13 3.73392 13 3.99913V9.99913C13 10.2644 13.1054 10.5187 13.2929 10.7062C13.4804 10.8938 13.7348 10.9991 14 10.9991C14.2652 10.9991 14.5196 10.8938 14.7071 10.7062C14.8946 10.5187 15 10.2644 15 9.99913V4.99913C15 4.73392 15.1054 4.47956 15.2929 4.29203C15.4804 4.10449 15.7348 3.99913 16 3.99913C16.2652 3.99913 16.5196 4.10449 16.7071 4.29203C16.8946 4.47956 17 4.73392 17 4.99913V9.99913C17 10.2644 17.1054 10.5187 17.2929 10.7062C17.4804 10.8938 17.7348 10.9991 18 10.9991C18.2652 10.9991 18.5196 10.8938 18.7071 10.7062C18.8946 10.5187 19 10.2644 19 9.99913V6.99913C19 6.73392 19.1054 6.47956 19.2929 6.29203C19.4804 6.10449 19.7348 5.99913 20 5.99913C20.9 5.99913 21 7.39913 21 7.99913V13.9991Z" fill="white"/>
</svg>
