<svg width="38" height="38" viewBox="0 0 38 38" fill="none" xmlns="http://www.w3.org/2000/svg">
<rect x="0.5" y="0.5" width="37" height="37" rx="7.5" fill="#1C94A3"/>
<rect x="0.5" y="0.5" width="37" height="37" rx="7.5" fill="#1C94A3"/>
<rect x="0.5" y="0.5" width="37" height="37" rx="7.5" stroke="#1C94A3"/>
<path fill-rule="evenodd" clip-rule="evenodd" d="M27.4403 12.8936L24.837 15.4977H22.5022V13.1629L25.1055 10.5588C23.1485 9.60453 20.8004 10.0095 19.2761 11.5641C17.7518 13.1188 17.3932 15.4744 18.386 17.4122L10.506 25.2929C9.91615 25.9037 9.92458 26.8745 10.525 27.4749C11.1254 28.0753 12.0962 28.0837 12.707 27.4938L20.5877 19.6131C22.5254 20.6052 24.8805 20.2464 26.4349 18.7222C27.9892 17.1981 28.3942 14.8504 27.4403 12.8936Z" stroke="white"/>
</svg>
