<svg width="39" height="40" viewBox="0 0 39 40" fill="none" xmlns="http://www.w3.org/2000/svg">
<mask id="path-1-inside-1_290_3044" fill="white">
<path d="M0 8C0 3.58172 3.58172 0 8 0H39V40H8C3.58172 40 0 36.4183 0 32V8Z"/>
</mask>
<path d="M0 8C0 3.58172 3.58172 0 8 0H39V40H8C3.58172 40 0 36.4183 0 32V8Z" fill="white"/>
<path d="M-1 8C-1 3.02944 3.02944 -1 8 -1H39V1H8C4.13401 1 1 4.13401 1 8H-1ZM39 41H8C3.02944 41 -1 36.9706 -1 32H1C1 35.866 4.13401 39 8 39H39V41ZM8 41C3.02944 41 -1 36.9706 -1 32V8C-1 3.02944 3.02944 -1 8 -1V1C4.13401 1 1 4.13401 1 8V32C1 35.866 4.13401 39 8 39V41ZM39 0V40V0Z" fill="#F0F1F1" mask="url(#path-1-inside-1_290_3044)"/>
<path d="M3.5 11C3.5 6.85786 6.85786 3.5 11 3.5H29C33.1421 3.5 36.5 6.85786 36.5 11V29C36.5 33.1421 33.1421 36.5 29 36.5H11C6.85786 36.5 3.5 33.1421 3.5 29V11Z" fill="#1C94A3" stroke="#1C94A3"/>
<path fill-rule="evenodd" clip-rule="evenodd" d="M17.3047 17.0312C17.7362 17.0312 18.0859 17.381 18.0859 17.8125V19.214H30V20.7765H18.0859V22.1094C18.0859 22.5409 17.7362 22.8906 17.3047 22.8906H14.1797C13.7482 22.8906 13.3984 22.5409 13.3984 22.1094V20.7765H10V19.214H13.3984V17.8125C13.3984 17.381 13.7482 17.0312 14.1797 17.0312H17.3047ZM14.9609 21.3281H16.5234V18.5938H14.9609V21.3281Z" fill="white"/>
<path fill-rule="evenodd" clip-rule="evenodd" d="M26.0547 24.1406C26.4862 24.1406 26.8359 24.4904 26.8359 24.9219V26.2891H30V27.8516H26.8359V29.2188C26.8359 29.6502 26.4862 30 26.0547 30H22.9297C22.4982 30 22.1484 29.6502 22.1484 29.2188V27.8516H10V26.2891H22.1484V24.9219C22.1484 24.4904 22.4982 24.1406 22.9297 24.1406H26.0547ZM23.7109 28.4375H25.2734V25.7031H23.7109V28.4375Z" fill="white"/>
<path fill-rule="evenodd" clip-rule="evenodd" d="M26.9141 10.7812V12.1875H30V13.75H26.9141V15.0781C26.9141 15.5096 26.5643 15.8594 26.1328 15.8594H23.0078C22.5763 15.8594 22.2266 15.5096 22.2266 15.0781V13.75H10V12.1875H22.2266V10.7812C22.2266 10.3498 22.5763 10 23.0078 10H26.1328C26.5643 10 26.9141 10.3498 26.9141 10.7812ZM23.7891 14.2969H25.3516V11.5625H23.7891V14.2969Z" fill="white"/>
</svg>
