<svg width="20" height="20" viewBox="0 0 20 20" fill="none" xmlns="http://www.w3.org/2000/svg">
<g id="Properties_icon">
<path id="Shape" fill-rule="evenodd" clip-rule="evenodd" d="M7.30469 7.03125C7.73617 7.03125 8.08594 7.38102 8.08594 7.8125V9.21398H20V10.7765H8.08594V12.1094C8.08594 12.5409 7.73617 12.8906 7.30469 12.8906H4.17969C3.7482 12.8906 3.39844 12.5409 3.39844 12.1094V10.7765H0V9.21398H3.39844V7.8125C3.39844 7.38102 3.7482 7.03125 4.17969 7.03125H7.30469ZM4.96094 11.3281H6.52344V8.59375H4.96094V11.3281Z" fill="#1C94A3"/>
<path id="Shape_2" fill-rule="evenodd" clip-rule="evenodd" d="M16.0547 14.1406C16.4862 14.1406 16.8359 14.4904 16.8359 14.9219V16.2891H20V17.8516H16.8359V19.2188C16.8359 19.6502 16.4862 20 16.0547 20H12.9297C12.4982 20 12.1484 19.6502 12.1484 19.2188V17.8516H0V16.2891H12.1484V14.9219C12.1484 14.4904 12.4982 14.1406 12.9297 14.1406H16.0547ZM13.7109 18.4375H15.2734V15.7031H13.7109V18.4375Z" fill="#1C94A3"/>
<path id="Shape_3" fill-rule="evenodd" clip-rule="evenodd" d="M16.9141 0.78125V2.1875H20V3.75H16.9141V5.07812C16.9141 5.50961 16.5643 5.85938 16.1328 5.85938H13.0078C12.5763 5.85938 12.2266 5.50961 12.2266 5.07812V3.75H0V2.1875H12.2266V0.78125C12.2266 0.349766 12.5763 0 13.0078 0H16.1328C16.5643 0 16.9141 0.349766 16.9141 0.78125ZM13.7891 4.29688H15.3516V1.5625H13.7891V4.29688Z" fill="#1C94A3"/>
</g>
</svg>
