<svg width="24" height="24" viewBox="0 0 24 24" fill="none" xmlns="http://www.w3.org/2000/svg">
<path fill-rule="evenodd" clip-rule="evenodd" d="M8.49762 19.5036C6.2871 19.5036 4.49512 17.7116 4.49512 15.5011V11.4986C4.49512 9.28807 6.2871 7.49609 8.49762 7.49609C10.7081 7.49609 12.5001 9.28807 12.5001 11.4986V15.5011C12.5001 17.7116 10.7081 19.5036 8.49762 19.5036Z" stroke="white" stroke-width="1.5"/>
<path d="M4.49512 12.5H12.5001" stroke="white" stroke-width="1.5"/>
<path d="M8.49805 12.5011V7.49797C8.49805 5.84008 9.84203 4.49609 11.4999 4.49609C13.1578 4.49609 14.5018 5.84008 14.5018 7.49797V8.99891C14.5018 10.3805 15.6218 11.5005 17.0034 11.5005C18.3849 11.5005 19.5049 10.3805 19.5049 8.99891V4.49609" stroke="white" stroke-width="1.5"/>
</svg>
