<svg width="38" height="38" viewBox="0 0 38 38" fill="none" xmlns="http://www.w3.org/2000/svg">
<rect x="0.5" y="0.5" width="37" height="37" rx="7.5" fill="white"/>
<rect x="0.5" y="0.5" width="37" height="37" rx="7.5" fill="white"/>
<rect x="0.5" y="0.5" width="37" height="37" rx="7.5" stroke="#1C94A3"/>
<path fill-rule="evenodd" clip-rule="evenodd" d="M11.4086 12.1378L17.0219 25.7703C17.1069 25.9765 17.2894 26.1265 17.5081 26.1701C17.7269 26.2137 17.9529 26.1451 18.1106 25.9873L21.1765 22.9214L24.4781 26.2239C24.739 26.4837 25.1608 26.4837 25.4218 26.2239L26.3646 25.2802C26.4898 25.1551 26.5601 24.9854 26.5601 24.8084C26.5601 24.6314 26.4898 24.4616 26.3646 24.3365L23.063 21.0349L26.1289 17.969C26.2867 17.8112 26.3551 17.5851 26.3113 17.3663C26.2676 17.1476 26.1173 16.9652 25.911 16.8803L12.2794 11.267C12.0304 11.1645 11.7442 11.2218 11.5538 11.4122C11.3634 11.6026 11.3061 11.8888 11.4086 12.1378Z" stroke="#1C94A3" stroke-width="1.5"/>
</svg>
