<svg width="38" height="38" viewBox="0 0 38 38" fill="none" xmlns="http://www.w3.org/2000/svg">
<rect x="0.5" y="0.5" width="37" height="37" rx="7.5" fill="#E33282"/>
<rect x="0.5" y="0.5" width="37" height="37" rx="7.5" fill="#E33282"/>
<rect x="0.5" y="0.5" width="37" height="37" rx="7.5" stroke="#E33282"/>
<g clip-path="url(#clip0_707_2093)">
<path d="M19 22C20.6569 22 22 20.6569 22 19C22 17.3431 20.6569 16 19 16C17.3431 16 16 17.3431 16 19C16 20.6569 17.3431 22 19 22Z" stroke="white" stroke-width="2" stroke-linecap="round" stroke-linejoin="round"/>
<path d="M26.4 22C26.2669 22.3016 26.2272 22.6362 26.286 22.9606C26.3448 23.285 26.4995 23.5843 26.73 23.82L26.79 23.88C26.976 24.0657 27.1235 24.2863 27.2241 24.5291C27.3248 24.7719 27.3766 25.0322 27.3766 25.295C27.3766 25.5578 27.3248 25.8181 27.2241 26.0609C27.1235 26.3037 26.976 26.5243 26.79 26.71C26.6043 26.896 26.3837 27.0435 26.1409 27.1441C25.8981 27.2448 25.6378 27.2966 25.375 27.2966C25.1122 27.2966 24.8519 27.2448 24.6091 27.1441C24.3663 27.0435 24.1457 26.896 23.96 26.71L23.9 26.65C23.6643 26.4195 23.365 26.2648 23.0406 26.206C22.7162 26.1472 22.3816 26.1869 22.08 26.32C21.7842 26.4468 21.532 26.6572 21.3543 26.9255C21.1766 27.1938 21.0813 27.5082 21.08 27.83V28C21.08 28.5304 20.8693 29.0391 20.4942 29.4142C20.1191 29.7893 19.6104 30 19.08 30C18.5496 30 18.0409 29.7893 17.6658 29.4142C17.2907 29.0391 17.08 28.5304 17.08 28V27.91C17.0723 27.579 16.9651 27.258 16.7725 26.9887C16.5799 26.7194 16.3107 26.5143 16 26.4C15.6984 26.2669 15.3638 26.2272 15.0394 26.286C14.715 26.3448 14.4157 26.4995 14.18 26.73L14.12 26.79C13.9343 26.976 13.7137 27.1235 13.4709 27.2241C13.2281 27.3248 12.9678 27.3766 12.705 27.3766C12.4422 27.3766 12.1819 27.3248 11.9391 27.2241C11.6963 27.1235 11.4757 26.976 11.29 26.79C11.104 26.6043 10.9565 26.3837 10.8559 26.1409C10.7552 25.8981 10.7034 25.6378 10.7034 25.375C10.7034 25.1122 10.7552 24.8519 10.8559 24.6091C10.9565 24.3663 11.104 24.1457 11.29 23.96L11.35 23.9C11.5805 23.6643 11.7352 23.365 11.794 23.0406C11.8528 22.7162 11.8131 22.3816 11.68 22.08C11.5532 21.7842 11.3428 21.532 11.0745 21.3543C10.8062 21.1766 10.4918 21.0813 10.17 21.08H10C9.46957 21.08 8.96086 20.8693 8.58579 20.4942C8.21071 20.1191 8 19.6104 8 19.08C8 18.5496 8.21071 18.0409 8.58579 17.6658C8.96086 17.2907 9.46957 17.08 10 17.08H10.09C10.421 17.0723 10.742 16.9651 11.0113 16.7725C11.2806 16.5799 11.4857 16.3107 11.6 16C11.7331 15.6984 11.7728 15.3638 11.714 15.0394C11.6552 14.715 11.5005 14.4157 11.27 14.18L11.21 14.12C11.024 13.9343 10.8765 13.7137 10.7759 13.4709C10.6752 13.2281 10.6234 12.9678 10.6234 12.705C10.6234 12.4422 10.6752 12.1819 10.7759 11.9391C10.8765 11.6963 11.024 11.4757 11.21 11.29C11.3957 11.104 11.6163 10.9565 11.8591 10.8559C12.1019 10.7552 12.3622 10.7034 12.625 10.7034C12.8878 10.7034 13.1481 10.7552 13.3909 10.8559C13.6337 10.9565 13.8543 11.104 14.04 11.29L14.1 11.35C14.3357 11.5805 14.635 11.7352 14.9594 11.794C15.2838 11.8528 15.6184 11.8131 15.92 11.68H16C16.2958 11.5532 16.548 11.3428 16.7257 11.0745C16.9034 10.8062 16.9987 10.4918 17 10.17V10C17 9.46957 17.2107 8.96086 17.5858 8.58579C17.9609 8.21071 18.4696 8 19 8C19.5304 8 20.0391 8.21071 20.4142 8.58579C20.7893 8.96086 21 9.46957 21 10V10.09C21.0013 10.4118 21.0966 10.7262 21.2743 10.9945C21.452 11.2628 21.7042 11.4732 22 11.6C22.3016 11.7331 22.6362 11.7728 22.9606 11.714C23.285 11.6552 23.5843 11.5005 23.82 11.27L23.88 11.21C24.0657 11.024 24.2863 10.8765 24.5291 10.7759C24.7719 10.6752 25.0322 10.6234 25.295 10.6234C25.5578 10.6234 25.8181 10.6752 26.0609 10.7759C26.3037 10.8765 26.5243 11.024 26.71 11.21C26.896 11.3957 27.0435 11.6163 27.1441 11.8591C27.2448 12.1019 27.2966 12.3622 27.2966 12.625C27.2966 12.8878 27.2448 13.1481 27.1441 13.3909C27.0435 13.6337 26.896 13.8543 26.71 14.04L26.65 14.1C26.4195 14.3357 26.2648 14.635 26.206 14.9594C26.1472 15.2838 26.1869 15.6184 26.32 15.92V16C26.4468 16.2958 26.6572 16.548 26.9255 16.7257C27.1938 16.9034 27.5082 16.9987 27.83 17H28C28.5304 17 29.0391 17.2107 29.4142 17.5858C29.7893 17.9609 30 18.4696 30 19C30 19.5304 29.7893 20.0391 29.4142 20.4142C29.0391 20.7893 28.5304 21 28 21H27.91C27.5882 21.0013 27.2738 21.0966 27.0055 21.2743C26.7372 21.452 26.5268 21.7042 26.4 22V22Z" stroke="white" stroke-width="2" stroke-linecap="round" stroke-linejoin="round"/>
</g>
<defs>
<clipPath id="clip0_707_2093">
<rect width="24" height="24" fill="white" transform="translate(7 7)"/>
</clipPath>
</defs>
</svg>
