<svg width="32" height="32" viewBox="0 0 32 32" fill="none" xmlns="http://www.w3.org/2000/svg">
<circle cx="16" cy="16" r="16" fill="#1C94A3"/>
<path d="M23.8776 16.4998C23.8781 16.8861 23.7122 17.2538 23.4223 17.5091L16.9129 23.2357C16.4643 23.6122 15.7972 23.5616 15.4104 23.1219C15.0236 22.6821 15.0587 22.014 15.4893 21.6171L21.1815 16.6096C21.2131 16.5819 21.2312 16.5419 21.2312 16.4998C21.2312 16.4578 21.2131 16.4178 21.1815 16.3901L15.4893 11.3826C15.0587 10.9857 15.0236 10.3176 15.4104 9.87781C15.7972 9.43807 16.4643 9.38752 16.9129 9.76396L23.42 15.4889C23.7106 15.7446 23.8772 16.1128 23.8776 16.4998Z" fill="white"/>
<mask id="mask0_277_484" style="mask-type:alpha" maskUnits="userSpaceOnUse" x="15" y="9" width="9" height="15">
<path d="M23.8776 16.4998C23.8781 16.8861 23.7122 17.2538 23.4223 17.5091L16.9129 23.2357C16.4643 23.6122 15.7972 23.5616 15.4104 23.1219C15.0236 22.6821 15.0587 22.014 15.4893 21.6171L21.1815 16.6096C21.2131 16.5819 21.2312 16.5419 21.2312 16.4998C21.2312 16.4578 21.2131 16.4178 21.1815 16.3901L15.4893 11.3826C15.0587 10.9857 15.0236 10.3176 15.4104 9.87781C15.7972 9.43807 16.4643 9.38752 16.9129 9.76396L23.42 15.4889C23.7106 15.7446 23.8772 16.1128 23.8776 16.4998Z" fill="white"/>
</mask>
<g mask="url(#mask0_277_484)">
</g>
<path d="M17.8776 16.4998C17.8781 16.8861 17.7122 17.2538 17.4223 17.5091L10.9129 23.2357C10.4643 23.6122 9.79721 23.5616 9.41043 23.1219C9.02365 22.6821 9.05866 22.014 9.48929 21.6171L15.1815 16.6096C15.2131 16.5819 15.2312 16.5419 15.2312 16.4998C15.2312 16.4578 15.2131 16.4178 15.1815 16.3901L9.48929 11.3826C9.05866 10.9857 9.02365 10.3176 9.41043 9.87781C9.79721 9.43807 10.4643 9.38752 10.9129 9.76396L17.42 15.4889C17.7106 15.7446 17.8772 16.1128 17.8776 16.4998Z" fill="white"/>
<mask id="mask1_277_484" style="mask-type:alpha" maskUnits="userSpaceOnUse" x="9" y="9" width="9" height="15">
<path d="M17.8776 16.4998C17.8781 16.8861 17.7122 17.2538 17.4223 17.5091L10.9129 23.2357C10.4643 23.6122 9.79721 23.5616 9.41043 23.1219C9.02365 22.6821 9.05866 22.014 9.48929 21.6171L15.1815 16.6096C15.2131 16.5819 15.2312 16.5419 15.2312 16.4998C15.2312 16.4578 15.2131 16.4178 15.1815 16.3901L9.48929 11.3826C9.05866 10.9857 9.02365 10.3176 9.41043 9.87781C9.79721 9.43807 10.4643 9.38752 10.9129 9.76396L17.42 15.4889C17.7106 15.7446 17.8772 16.1128 17.8776 16.4998Z" fill="white"/>
</mask>
<g mask="url(#mask1_277_484)">
</g>
</svg>
