<svg width="32" height="32" viewBox="0 0 32 32" fill="none" xmlns="http://www.w3.org/2000/svg">
<circle cx="16" cy="16" r="16" transform="rotate(-180 16 16)" fill="#1C94A3"/>
<path d="M8.12214 15.5002C8.12166 15.1139 8.28756 14.7462 8.57743 14.4909L15.0868 8.76429C15.5355 8.38784 16.2025 8.43839 16.5893 8.87814C16.9761 9.31788 16.9411 9.98598 16.5105 10.3829L10.8182 15.3904C10.7866 15.4181 10.7685 15.4581 10.7685 15.5002C10.7685 15.5422 10.7866 15.5822 10.8182 15.6099L16.5105 20.6174C16.9411 21.0143 16.9761 21.6824 16.5893 22.1222C16.2025 22.5619 15.5355 22.6125 15.0868 22.236L8.57976 16.5111C8.28919 16.2554 8.12251 15.8872 8.12214 15.5002Z" fill="white"/>
<mask id="mask0_277_558" style="mask-type:alpha" maskUnits="userSpaceOnUse" x="8" y="8" width="9" height="15">
<path d="M8.12214 15.5002C8.12166 15.1139 8.28756 14.7462 8.57743 14.4909L15.0868 8.76429C15.5355 8.38784 16.2025 8.43839 16.5893 8.87814C16.9761 9.31788 16.9411 9.98598 16.5105 10.3829L10.8182 15.3904C10.7866 15.4181 10.7685 15.4581 10.7685 15.5002C10.7685 15.5422 10.7866 15.5822 10.8182 15.6099L16.5105 20.6174C16.9411 21.0143 16.9761 21.6824 16.5893 22.1222C16.2025 22.5619 15.5355 22.6125 15.0868 22.236L8.57976 16.5111C8.28919 16.2554 8.12251 15.8872 8.12214 15.5002Z" fill="white"/>
</mask>
<g mask="url(#mask0_277_558)">
</g>
<path d="M14.1221 15.5002C14.1217 15.1139 14.2876 14.7462 14.5774 14.4909L21.0868 8.76429C21.5355 8.38784 22.2025 8.43839 22.5893 8.87814C22.9761 9.31788 22.9411 9.98598 22.5105 10.3829L16.8182 15.3904C16.7866 15.4181 16.7685 15.4581 16.7685 15.5002C16.7685 15.5422 16.7866 15.5822 16.8182 15.6099L22.5105 20.6174C22.9411 21.0143 22.9761 21.6824 22.5893 22.1222C22.2025 22.5619 21.5355 22.6125 21.0868 22.236L14.5798 16.5111C14.2892 16.2554 14.1225 15.8872 14.1221 15.5002Z" fill="white"/>
<mask id="mask1_277_558" style="mask-type:alpha" maskUnits="userSpaceOnUse" x="14" y="8" width="9" height="15">
<path d="M14.1221 15.5002C14.1217 15.1139 14.2876 14.7462 14.5774 14.4909L21.0868 8.76429C21.5355 8.38784 22.2025 8.43839 22.5893 8.87814C22.9761 9.31788 22.9411 9.98598 22.5105 10.3829L16.8182 15.3904C16.7866 15.4181 16.7685 15.4581 16.7685 15.5002C16.7685 15.5422 16.7866 15.5822 16.8182 15.6099L22.5105 20.6174C22.9411 21.0143 22.9761 21.6824 22.5893 22.1222C22.2025 22.5619 21.5355 22.6125 21.0868 22.236L14.5798 16.5111C14.2892 16.2554 14.1225 15.8872 14.1221 15.5002Z" fill="white"/>
</mask>
<g mask="url(#mask1_277_558)">
</g>
</svg>
