<svg width="39" height="40" viewBox="0 0 39 40" fill="none" xmlns="http://www.w3.org/2000/svg">
<mask id="path-1-inside-1_290_2783" fill="white">
<path d="M0 0H39V40H0V0Z"/>
</mask>
<path d="M0 0H39V40H0V0Z" fill="white"/>
<path d="M0 1H39V-1H0V1ZM39 39H0V41H39V39Z" fill="#F0F1F1" mask="url(#path-1-inside-1_290_2783)"/>
<path d="M3.5 11C3.5 6.85786 6.85786 3.5 11 3.5H29C33.1421 3.5 36.5 6.85786 36.5 11V29C36.5 33.1421 33.1421 36.5 29 36.5H11C6.85786 36.5 3.5 33.1421 3.5 29V11Z" fill="white" stroke="#1C94A3"/>
<path fill-rule="evenodd" clip-rule="evenodd" d="M23.9993 26.113H23.5625C23.4874 26.1129 23.4206 26.0649 23.3966 25.9937L19.0251 13.1912C18.8801 12.7661 18.4814 12.4799 18.0323 12.4785H18.0273C17.5762 12.4788 17.1753 12.7658 17.0294 13.1926L12.6724 25.9937C12.6479 26.0649 12.581 26.1128 12.5057 26.113H12.0833C11.8265 26.1048 11.5857 26.2371 11.4549 26.4582C11.324 26.6793 11.324 26.954 11.4549 27.1751C11.5857 27.3962 11.8265 27.5285 12.0833 27.5203H14.2004C14.3872 27.5205 14.5663 27.4464 14.6984 27.3143C14.8305 27.1823 14.9046 27.0031 14.9044 26.8163C14.9095 26.4742 14.6603 26.1814 14.3218 26.1317C14.2717 26.1222 14.2284 26.0912 14.2033 26.0469C14.178 26.0033 14.1728 25.9509 14.1889 25.9032L15.2665 22.7329C15.291 22.6617 15.3579 22.6139 15.4332 22.6137H20.6272C20.7025 22.6139 20.7694 22.6617 20.7938 22.7329L21.8765 25.9046C21.8925 25.9523 21.8875 26.0046 21.8627 26.0483C21.8379 26.0921 21.7956 26.1232 21.7464 26.1338C21.4143 26.1904 21.1727 26.4801 21.1767 26.817C21.1766 27.0038 21.2507 27.183 21.3827 27.315C21.5148 27.4471 21.694 27.5212 21.8808 27.521H23.9979C24.2546 27.5292 24.4955 27.3969 24.6263 27.1759C24.7571 26.9548 24.7571 26.68 24.6263 26.4589C24.4955 26.2378 24.2546 26.1055 23.9979 26.1137L23.9993 26.113ZM16.0337 21.2056C15.9769 21.2056 15.9236 21.1782 15.8906 21.1321C15.8575 21.0859 15.8488 21.0266 15.8671 20.9728L17.8613 15.115C17.8856 15.0436 17.9526 14.9956 18.028 14.9956C18.1034 14.9956 18.1704 15.0436 18.1947 15.115L20.1947 20.9721C20.2127 21.026 20.2039 21.0853 20.171 21.1316C20.1374 21.1773 20.084 21.204 20.0273 21.2035L16.0337 21.2056ZM27.7587 26.113H27.9167V26.1202C28.1735 26.112 28.4144 26.2443 28.5452 26.4653C28.676 26.6864 28.676 26.9612 28.5452 27.1823C28.4144 27.4034 28.1735 27.5357 27.9167 27.5275H26.3535C26.1669 27.5275 25.9879 27.4533 25.8559 27.3213C25.724 27.1892 25.65 27.0101 25.6502 26.8235C25.6506 26.5664 25.7949 26.3312 26.0238 26.2143C26.1019 26.1737 26.1379 26.0815 26.1078 25.9988L25.3176 23.6913C25.2931 23.6201 25.2262 23.5722 25.1509 23.572H23.5704C23.1906 23.5599 22.8889 23.2484 22.8889 22.8683C22.8889 22.4883 23.1906 22.1768 23.5704 22.1647H24.5482C24.605 22.1648 24.6583 22.1374 24.6913 22.0911C24.7242 22.0449 24.7327 21.9856 24.7141 21.9319L23.661 18.8428C23.6364 18.7719 23.5696 18.7244 23.4947 18.7244C23.4197 18.7244 23.3529 18.7719 23.3283 18.8428L22.9576 19.9297C22.8765 20.1677 22.6747 20.3442 22.4281 20.393C22.1815 20.4417 21.9276 20.3551 21.7621 20.1659C21.5966 19.9767 21.5446 19.7136 21.6257 19.4757L22.4512 17.0446C22.6018 16.5975 23.021 16.2963 23.4929 16.2963C23.9647 16.2963 24.3839 16.5975 24.5345 17.0446L27.592 25.9937C27.6165 26.0649 27.6834 26.1128 27.7587 26.113Z" fill="#1C94A3"/>
<mask id="mask0_290_2783" style="mask-type:alpha" maskUnits="userSpaceOnUse" x="11" y="12" width="18" height="16">
<path fill-rule="evenodd" clip-rule="evenodd" d="M23.9993 26.113H23.5625C23.4874 26.1129 23.4206 26.0649 23.3966 25.9937L19.0251 13.1912C18.8801 12.7661 18.4814 12.4799 18.0323 12.4785H18.0273C17.5762 12.4788 17.1753 12.7658 17.0294 13.1926L12.6724 25.9937C12.6479 26.0649 12.581 26.1128 12.5057 26.113H12.0833C11.8265 26.1048 11.5857 26.2371 11.4549 26.4582C11.324 26.6793 11.324 26.954 11.4549 27.1751C11.5857 27.3962 11.8265 27.5285 12.0833 27.5203H14.2004C14.3872 27.5205 14.5663 27.4464 14.6984 27.3143C14.8305 27.1823 14.9046 27.0031 14.9044 26.8163C14.9095 26.4742 14.6603 26.1814 14.3218 26.1317C14.2717 26.1222 14.2284 26.0912 14.2033 26.0469C14.178 26.0033 14.1728 25.9509 14.1889 25.9032L15.2665 22.7329C15.291 22.6617 15.3579 22.6139 15.4332 22.6137H20.6272C20.7025 22.6139 20.7694 22.6617 20.7938 22.7329L21.8765 25.9046C21.8925 25.9523 21.8875 26.0046 21.8627 26.0483C21.8379 26.0921 21.7956 26.1232 21.7464 26.1338C21.4143 26.1904 21.1727 26.4801 21.1767 26.817C21.1766 27.0038 21.2507 27.183 21.3827 27.315C21.5148 27.4471 21.694 27.5212 21.8808 27.521H23.9979C24.2546 27.5292 24.4955 27.3969 24.6263 27.1759C24.7571 26.9548 24.7571 26.68 24.6263 26.4589C24.4955 26.2378 24.2546 26.1055 23.9979 26.1137L23.9993 26.113ZM16.0337 21.2056C15.9769 21.2056 15.9236 21.1782 15.8906 21.1321C15.8575 21.0859 15.8488 21.0266 15.8671 20.9728L17.8613 15.115C17.8856 15.0436 17.9526 14.9956 18.028 14.9956C18.1034 14.9956 18.1704 15.0436 18.1947 15.115L20.1947 20.9721C20.2127 21.026 20.2039 21.0853 20.171 21.1316C20.1374 21.1773 20.084 21.204 20.0273 21.2035L16.0337 21.2056ZM27.7587 26.113H27.9167V26.1202C28.1735 26.112 28.4144 26.2443 28.5452 26.4653C28.676 26.6864 28.676 26.9612 28.5452 27.1823C28.4144 27.4034 28.1735 27.5357 27.9167 27.5275H26.3535C26.1669 27.5275 25.9879 27.4533 25.8559 27.3213C25.724 27.1892 25.65 27.0101 25.6502 26.8235C25.6506 26.5664 25.7949 26.3312 26.0238 26.2143C26.1019 26.1737 26.1379 26.0815 26.1078 25.9988L25.3176 23.6913C25.2931 23.6201 25.2262 23.5722 25.1509 23.572H23.5704C23.1906 23.5599 22.8889 23.2484 22.8889 22.8683C22.8889 22.4883 23.1906 22.1768 23.5704 22.1647H24.5482C24.605 22.1648 24.6583 22.1374 24.6913 22.0911C24.7242 22.0449 24.7327 21.9856 24.7141 21.9319L23.661 18.8428C23.6364 18.7719 23.5696 18.7244 23.4947 18.7244C23.4197 18.7244 23.3529 18.7719 23.3283 18.8428L22.9576 19.9297C22.8765 20.1677 22.6747 20.3442 22.4281 20.393C22.1815 20.4417 21.9276 20.3551 21.7621 20.1659C21.5966 19.9767 21.5446 19.7136 21.6257 19.4757L22.4512 17.0446C22.6018 16.5975 23.021 16.2963 23.4929 16.2963C23.9647 16.2963 24.3839 16.5975 24.5345 17.0446L27.592 25.9937C27.6165 26.0649 27.6834 26.1128 27.7587 26.113Z" fill="white"/>
</mask>
<g mask="url(#mask0_290_2783)">
</g>
</svg>
