<svg width="16" height="16" viewBox="0 0 16 16" fill="none" xmlns="http://www.w3.org/2000/svg">
<path fill-rule="evenodd" clip-rule="evenodd" d="M8.00002 1.5999C6.46535 1.5999 5.08335 2.41585 4.12868 3.72777C3.88668 4.05575 3.46534 4.09574 3.18801 3.79976C2.91134 3.51178 2.88334 3.00781 3.12534 2.67183C4.31935 1.03993 6.05935 0 8.00002 0C11.578 0 14.462 3.51178 14.532 7.83951L14.8567 7.43953C15.114 7.12755 15.536 7.11955 15.7994 7.43153C16.0627 7.73551 16.0674 8.23948 15.81 8.55946L14.3434 10.3593C14.218 10.5113 14.046 10.5993 13.8667 10.5993C13.6874 10.5993 13.5154 10.5113 13.39 10.3593L11.9234 8.55946C11.666 8.23948 11.6707 7.73551 11.934 7.43153C12.1974 7.11955 12.6194 7.12755 12.8767 7.43953L13.198 7.83151C13.1274 4.35973 10.8134 1.5999 8.00002 1.5999ZM2.13329 5.39965C2.31263 5.39965 2.48463 5.48765 2.60996 5.63964L4.07663 7.43953C4.33396 7.75951 4.3293 8.26347 4.06596 8.56745C3.80263 8.87944 3.38063 8.87144 3.1233 8.55945L2.80196 8.16748C2.87263 11.6393 5.18663 14.3991 7.99997 14.3991C9.53464 14.3991 10.9166 13.5831 11.8713 12.2712C12.1133 11.9432 12.5346 11.9032 12.812 12.1992C13.0886 12.4872 13.1166 12.9912 12.8746 13.3272C11.6806 14.9591 9.94064 15.999 7.99997 15.999C4.42196 15.999 1.53796 12.4872 1.46796 8.15948L1.14329 8.55945C0.88596 8.87144 0.46396 8.87944 0.200626 8.56745C-0.0627077 8.26347 -0.0673744 7.75951 0.189959 7.43953L1.65663 5.63964C1.78196 5.48765 1.95396 5.39965 2.13329 5.39965Z" fill="#DADADA"/>
</svg>
