<svg width="24" height="24" viewBox="0 0 24 24" fill="none" xmlns="http://www.w3.org/2000/svg">
<path d="M1.00001 14.5C1.00212 12.7767 1.68762 11.1247 2.90615 9.90614C4.12468 8.68762 5.77675 8.00212 7.50001 8H19.586L16.293 4.707C16.1975 4.61475 16.1213 4.50441 16.0689 4.3824C16.0165 4.2604 15.9889 4.12918 15.9878 3.9964C15.9866 3.86362 16.0119 3.73194 16.0622 3.60905C16.1125 3.48615 16.1867 3.3745 16.2806 3.28061C16.3745 3.18671 16.4862 3.11246 16.6091 3.06218C16.7319 3.0119 16.8636 2.9866 16.9964 2.98775C17.1292 2.9889 17.2604 3.01649 17.3824 3.0689C17.5044 3.12131 17.6148 3.19749 17.707 3.293L22.707 8.293C22.8001 8.38589 22.874 8.49624 22.9244 8.61773C22.9748 8.73922 23.0008 8.86947 23.0008 9.001C23.0008 9.13253 22.9748 9.26278 22.9244 9.38427C22.874 9.50576 22.8001 9.61611 22.707 9.709L17.707 14.709C17.5184 14.8912 17.2658 14.992 17.0036 14.9897C16.7414 14.9874 16.4906 14.8822 16.3052 14.6968C16.1198 14.5114 16.0146 14.2606 16.0123 13.9984C16.0101 13.7362 16.1108 13.4836 16.293 13.295L19.586 10H7.50001C6.30653 10 5.16194 10.4741 4.31803 11.318C3.47411 12.1619 3.00001 13.3065 3.00001 14.5C3.00001 15.6935 3.47411 16.8381 4.31803 17.682C5.16194 18.5259 6.30653 19 7.50001 19H12C12.2652 19 12.5196 19.1054 12.7071 19.2929C12.8946 19.4804 13 19.7348 13 20C13 20.2652 12.8946 20.5196 12.7071 20.7071C12.5196 20.8946 12.2652 21 12 21H7.50001C5.77675 20.9979 4.12468 20.3124 2.90615 19.0939C1.68762 17.8753 1.00212 16.2233 1.00001 14.5Z" fill="#111111"/>
</svg>
