<svg width="24" height="24" viewBox="0 0 24 24" fill="none" xmlns="http://www.w3.org/2000/svg">
<path d="M1.294 8.292L6.294 3.292C6.4826 3.10984 6.7352 3.00905 6.9974 3.01133C7.2596 3.01361 7.51041 3.11877 7.69582 3.30418C7.88123 3.48959 7.9864 3.7404 7.98867 4.0026C7.99095 4.2648 7.89016 4.5174 7.708 4.706L4.414 8H16.5C18.2239 8 19.8772 8.68482 21.0962 9.90381C22.3152 11.1228 23 12.7761 23 14.5C23 16.2239 22.3152 17.8772 21.0962 19.0962C19.8772 20.3152 18.2239 21 16.5 21H12C11.7348 21 11.4804 20.8946 11.2929 20.7071C11.1054 20.5196 11 20.2652 11 20C11 19.7348 11.1054 19.4804 11.2929 19.2929C11.4804 19.1054 11.7348 19 12 19H16.5C17.6935 19 18.8381 18.5259 19.682 17.682C20.5259 16.8381 21 15.6935 21 14.5C21 13.3065 20.5259 12.1619 19.682 11.318C18.8381 10.4741 17.6935 10 16.5 10H4.414L7.707 13.293C7.88916 13.4816 7.98995 13.7342 7.98767 13.9964C7.9854 14.2586 7.88023 14.5094 7.69482 14.6948C7.50941 14.8802 7.2586 14.9854 6.9964 14.9877C6.7342 14.99 6.4816 14.8892 6.293 14.707L1.293 9.707C1.20009 9.61406 1.12641 9.50372 1.07617 9.38229C1.02593 9.26085 1.00012 9.13071 1.00021 8.99929C1.00031 8.86788 1.0263 8.73777 1.07671 8.61641C1.12712 8.49504 1.20096 8.38481 1.294 8.292Z" fill="#111111"/>
</svg>
