<svg width="38" height="38" viewBox="0 0 38 38" fill="none" xmlns="http://www.w3.org/2000/svg">
<rect x="0.5" y="0.5" width="37" height="37" rx="7.5" fill="white" stroke="#1C94A3"/>
<path d="M28.3664 25.691L31.6162 22.4412L28.3664 19.1914" stroke="#1C94A3" stroke-width="2"/>
<path d="M9.26812 14.3248L10.4638 18.7871" stroke="#1C94A3" stroke-width="2"/>
<path d="M15.5395 23.3814C16.0915 23.3967 16.5515 22.9615 16.5668 22.4095C16.5821 21.8574 16.1469 21.3975 15.5948 21.3822L15.5395 23.3814ZM10.4384 18.6797L9.47166 18.9356C10.053 21.1312 11.6371 22.2502 12.9793 22.8008C13.6486 23.0753 14.2775 23.2188 14.737 23.2944C14.9682 23.3324 15.1604 23.3539 15.2985 23.366C15.3676 23.372 15.4235 23.3758 15.4642 23.378C15.4846 23.3792 15.5012 23.38 15.5138 23.3805C15.5201 23.3807 15.5254 23.3809 15.5297 23.3811C15.5318 23.3812 15.5337 23.3812 15.5353 23.3813C15.5362 23.3813 15.5369 23.3813 15.5376 23.3813C15.5379 23.3814 15.5384 23.3814 15.5386 23.3814C15.539 23.3814 15.5395 23.3814 15.5671 22.3818C15.5948 21.3822 15.5952 21.3822 15.5956 21.3822C15.5957 21.3822 15.5961 21.3822 15.5963 21.3822C15.5967 21.3822 15.5971 21.3822 15.5974 21.3822C15.598 21.3823 15.5984 21.3823 15.5985 21.3823C15.5988 21.3823 15.5981 21.3823 15.5965 21.3822C15.5932 21.3821 15.5862 21.3817 15.5758 21.3812C15.5548 21.38 15.52 21.3777 15.473 21.3736C15.3788 21.3654 15.2371 21.3498 15.0616 21.3209C14.7079 21.2627 14.2325 21.1531 13.7383 20.9504C12.7536 20.5465 11.7733 19.8145 11.405 18.4237L10.4384 18.6797Z" fill="#1C94A3"/>
<path d="M15.4183 21.3809C14.8661 21.3809 14.4183 21.8286 14.4183 22.3809C14.4183 22.9331 14.8661 23.3809 15.4183 23.3809V21.3809ZM15.4183 22.3809V23.3809H18.0374V22.3809V21.3809H15.4183V22.3809ZM18.0374 22.3809V23.3809H20.6564V22.3809V21.3809H18.0374V22.3809ZM20.6564 22.3809V23.3809H23.2755V22.3809V21.3809H20.6564V22.3809ZM23.2755 22.3809V23.3809H25.8945V22.3809V21.3809H23.2755V22.3809ZM25.8945 22.3809V23.3809H26.4183V22.3809V21.3809H25.8945V22.3809Z" fill="#1C94A3"/>
<path d="M31.1183 22.3789H26.1183" stroke="#1C94A3" stroke-width="2"/>
<path d="M13.1192 16.1381L9.13906 13.8402L6.84113 17.8203" stroke="#1C94A3" stroke-width="2"/>
</svg>
