<svg width="16" height="16" viewBox="0 0 16 16" fill="none" xmlns="http://www.w3.org/2000/svg">
<mask id="mask0_762_2350" style="mask-type:luminance" maskUnits="userSpaceOnUse" x="0" y="0" width="16" height="16">
<path d="M16 0H0V16H16V0Z" fill="white"/>
</mask>
<g mask="url(#mask0_762_2350)">
<path d="M1 2.82666C1.885 2.45666 3.154 2.05766 4.388 1.93366C5.718 1.79966 6.846 1.99666 7.5 2.68566V12.4317C6.565 11.9017 5.38 11.8287 4.287 11.9387C3.107 12.0587 1.917 12.3997 1 12.7497V2.82666ZM8.5 2.68566C9.154 1.99666 10.282 1.79966 11.612 1.93366C12.846 2.05766 14.115 2.45666 15 2.82666V12.7497C14.082 12.3997 12.893 12.0577 11.713 11.9397C10.619 11.8287 9.435 11.9007 8.5 12.4317V2.68566ZM8 1.78166C7.015 0.93466 5.587 0.80866 4.287 0.93866C2.773 1.09166 1.245 1.61066 0.293 2.04366C0.20565 2.08339 0.13158 2.14742 0.07962 2.2281C0.02767 2.30878 3e-05 2.4027 0 2.49866V13.4987C2e-05 13.5824 0.02104 13.6647 0.06112 13.7381C0.1012 13.8115 0.15906 13.8737 0.22941 13.919C0.29976 13.9643 0.38034 13.9912 0.46378 13.9973C0.54722 14.0033 0.63085 13.9883 0.707 13.9537C1.589 13.5537 3.01 13.0727 4.387 12.9337C5.796 12.7917 6.977 13.0207 7.61 13.8107C7.65685 13.8691 7.71622 13.9162 7.78372 13.9486C7.85122 13.981 7.92513 13.9978 8 13.9978C8.07487 13.9978 8.14878 13.981 8.21628 13.9486C8.28378 13.9162 8.34315 13.8691 8.39 13.8107C9.023 13.0207 10.204 12.7917 11.612 12.9337C12.99 13.0727 14.412 13.5537 15.293 13.9537C15.3692 13.9883 15.4528 14.0033 15.5362 13.9973C15.6197 13.9912 15.7002 13.9643 15.7706 13.919C15.8409 13.8737 15.8988 13.8115 15.9389 13.7381C15.979 13.6647 16 13.5824 16 13.4987V2.49866C16 2.4027 15.9723 2.30878 15.9204 2.2281C15.8684 2.14742 15.7944 2.08339 15.707 2.04366C14.755 1.61066 13.227 1.09166 11.713 0.93866C10.413 0.80766 8.985 0.93466 8 1.78166Z" fill="#DADADA"/>
</g>
</svg>
