<svg width="28" height="28" viewBox="0 0 28 28" fill="none" xmlns="http://www.w3.org/2000/svg">
<path d="M4.22801 17.5008C5.84354 19.1186 7.99491 20.0898 10.2768 20.2314C12.5587 20.373 14.8137 19.6753 16.6168 18.2697L22.8212 24.474C23.0412 24.6865 23.3359 24.8041 23.6418 24.8014C23.9477 24.7988 24.2403 24.6761 24.4566 24.4598C24.6729 24.2435 24.7956 23.9509 24.7983 23.645C24.801 23.3391 24.6834 23.0444 24.4708 22.8243L18.2665 16.62C19.7345 14.736 20.4286 12.363 20.2071 9.98488C19.9857 7.60678 18.8654 5.40271 17.0747 3.82219C15.2841 2.24167 12.958 1.40375 10.5708 1.47931C8.18359 1.55487 5.91512 2.53822 4.22801 4.22882C3.35628 5.10011 2.66475 6.13462 2.19295 7.27325C1.72114 8.41188 1.4783 9.63231 1.4783 10.8648C1.4783 12.0973 1.72114 13.3178 2.19295 14.4564C2.66475 15.595 3.35628 16.6295 4.22801 17.5008ZM5.87768 5.88082C7.03101 4.72751 8.54856 4.00977 10.1717 3.84988C11.7949 3.69 13.4233 4.09786 14.7795 5.00398C16.1357 5.9101 17.1358 7.25841 17.6093 8.8192C18.0829 10.38 18.0006 12.0567 17.3765 13.5636C16.7525 15.0706 15.6252 16.3145 14.1868 17.0835C12.7484 17.8525 11.0879 18.099 9.48819 17.7809C7.88845 17.4629 6.44846 16.6001 5.41358 15.3394C4.37869 14.0787 3.81292 12.4982 3.81268 10.8672C3.80948 9.94032 3.99037 9.02208 4.34485 8.16571C4.69934 7.30935 5.22036 6.5319 5.87768 5.87849V5.88082ZM6.19618 10.866C6.19618 10.5566 6.3191 10.2598 6.53789 10.041C6.75668 9.82224 7.05343 9.69932 7.36285 9.69932H9.69618V7.36599C9.69618 7.05657 9.8191 6.75982 10.0379 6.54103C10.2567 6.32224 10.5534 6.19932 10.8628 6.19932C11.1723 6.19932 11.469 6.32224 11.6878 6.54103C11.9066 6.75982 12.0295 7.05657 12.0295 7.36599V9.69932H14.3628C14.6723 9.69932 14.969 9.82224 15.1878 10.041C15.4066 10.2598 15.5295 10.5566 15.5295 10.866C15.5295 11.1754 15.4066 11.4722 15.1878 11.6909C14.969 11.9097 14.6723 12.0327 14.3628 12.0327H12.0295V14.366C12.0295 14.6754 11.9066 14.9722 11.6878 15.1909C11.469 15.4097 11.1723 15.5327 10.8628 15.5327C10.5534 15.5327 10.2567 15.4097 10.0379 15.1909C9.8191 14.9722 9.69618 14.6754 9.69618 14.366V12.0327H7.36285C7.20944 12.0327 7.05754 12.0024 6.91584 11.9436C6.77414 11.8848 6.64543 11.7987 6.53706 11.6901C6.4287 11.5815 6.34281 11.4526 6.28432 11.3108C6.22582 11.169 6.19587 11.0171 6.19618 10.8637V10.866Z" fill="black"/>
</svg>
