<svg width="28" height="28" viewBox="0 0 28 28" fill="none" xmlns="http://www.w3.org/2000/svg">
<path d="M5.08199 18.3516C6.69713 19.9701 8.8486 20.9417 11.1307 21.0833C13.4129 21.225 15.668 20.5268 17.4708 19.1204L23.6752 25.3247C23.8952 25.5373 24.1899 25.6548 24.4958 25.6522C24.8017 25.6495 25.0943 25.5268 25.3106 25.3105C25.5269 25.0942 25.6496 24.8016 25.6523 24.4957C25.6549 24.1898 25.5373 23.8951 25.3248 23.6751L19.1205 17.4707C20.5262 15.6674 21.224 13.4123 21.0824 11.1301C20.9408 8.84802 19.9695 6.69645 18.3517 5.08074C17.4809 4.20678 16.4463 3.51311 15.3071 3.03945C14.1679 2.56578 12.9465 2.32141 11.7128 2.32032C10.4791 2.31922 9.25724 2.56143 8.11722 3.03308C6.97721 3.50472 5.94139 4.19655 5.06906 5.06897C4.19672 5.94138 3.50498 6.97726 3.03343 8.11731C2.56189 9.25737 2.31979 10.4792 2.32099 11.713C2.32219 12.9467 2.56667 14.1681 3.04044 15.3072C3.5142 16.4463 4.20795 17.4809 5.08199 18.3516ZM6.73166 6.73157C7.88503 5.57822 9.40263 4.86047 11.0259 4.70062C12.6491 4.54076 14.2776 4.94869 15.6338 5.85489C16.99 6.76109 17.99 8.10951 18.4634 9.67037C18.9369 11.2312 18.8545 12.908 18.2303 14.4149C17.6061 15.9218 16.4787 17.1657 15.0402 17.9346C13.6017 18.7035 11.9411 18.9498 10.3413 18.6315C8.74156 18.3133 7.30164 17.4502 6.26691 16.1893C5.23217 14.9285 4.66663 13.3478 4.66666 11.7167C4.66553 10.7907 4.84737 9.87363 5.20175 9.01811C5.55613 8.1626 6.07605 7.38554 6.73166 6.73157ZM7.05016 11.7167C7.05016 11.4073 7.17307 11.1106 7.39187 10.8918C7.61066 10.673 7.90741 10.5501 8.21682 10.5501H15.2168C15.5262 10.5501 15.823 10.673 16.0418 10.8918C16.2606 11.1106 16.3835 11.4073 16.3835 11.7167C16.3835 12.0262 16.2606 12.3229 16.0418 12.5417C15.823 12.7605 15.5262 12.8834 15.2168 12.8834H8.21682C7.90741 12.8834 7.61066 12.7605 7.39187 12.5417C7.17307 12.3229 7.05016 12.0262 7.05016 11.7167Z" fill="white"/>
</svg>
