<svg width="21" height="21" viewBox="0 0 21 21" fill="none" xmlns="http://www.w3.org/2000/svg">
<path d="M10.5004 19.2962C15.3585 19.2962 19.2967 15.358 19.2967 10.4999C19.2967 5.64185 15.3585 1.70361 10.5004 1.70361C5.64234 1.70361 1.7041 5.64185 1.7041 10.4999C1.7041 15.358 5.64234 19.2962 10.5004 19.2962Z" fill="white" stroke="#ECC444" stroke-width="1.5"/>
<path d="M10.4998 6.11914C8.98411 6.11914 7.75098 7.35227 7.75098 8.86798C7.75098 9.24753 8.05864 9.55519 8.43819 9.55519C8.81773 9.55519 9.1254 9.24753 9.1254 8.86798C9.1254 8.11013 9.74196 7.49356 10.4998 7.49356C11.2577 7.49356 11.8742 8.11013 11.8742 8.86798C11.8742 9.62584 11.2577 10.2424 10.4998 10.2424C10.1203 10.2424 9.81261 10.5501 9.81261 10.9296V12.6476C9.81261 13.0272 10.1203 13.3349 10.4998 13.3349C10.8794 13.3349 11.187 13.0272 11.187 12.6476V11.5299C12.3713 11.2239 13.2487 10.1465 13.2487 8.86798C13.2487 7.35227 12.0155 6.11914 10.4998 6.11914Z" fill="#ECC444"/>
<circle cx="10.4951" cy="14.875" r="0.875" fill="#ECC444"/>
</svg>
