<svg width="19" height="19" viewBox="0 0 19 19" fill="none" xmlns="http://www.w3.org/2000/svg">
<g clip-path="url(#clip0_357_4576)">
<path d="M3.13281 3.13281C6.64431 -0.377616 12.3558 -0.377819 15.8672 3.13281C19.3779 6.64359 19.3779 12.3574 15.8672 15.8682C14.1117 17.6229 11.8072 18.5 9.5 18.5C7.19291 18.5 4.88824 17.6227 3.13281 15.8682C-0.377123 12.3574 -0.377123 6.6436 3.13281 3.13281Z" fill="white" stroke="#D83A3A"/>
<path d="M13.4195 12.3005C13.7292 12.6102 13.7292 13.1108 13.4195 13.4204C13.2651 13.5749 13.0623 13.6525 12.8595 13.6525C12.6568 13.6525 12.454 13.5749 12.2996 13.4204L9.49972 10.6197L6.70066 13.4196C6.54543 13.5741 6.34264 13.6517 6.14067 13.6517C5.93793 13.6517 5.73514 13.5741 5.58069 13.4196C5.27102 13.1099 5.27102 12.6086 5.58069 12.2997L8.37975 9.49977L5.57991 6.69987C5.27024 6.39019 5.27024 5.88882 5.57991 5.57992C5.88881 5.27024 6.39017 5.27024 6.69984 5.57992L9.49968 8.37982L12.2995 5.57992C12.6092 5.27024 13.1098 5.27024 13.4195 5.57992C13.7291 5.88882 13.7291 6.39019 13.4195 6.69987L10.6196 9.49977L13.4195 12.3005Z" fill="#D83A3A"/>
</g>
<defs>
<clipPath id="clip0_357_4576">
<rect width="19" height="19" fill="white"/>
</clipPath>
</defs>
</svg>
