<svg width="23" height="24" viewBox="0 0 23 24" fill="none" xmlns="http://www.w3.org/2000/svg">
<path d="M11.5 15.4327L7.97044 12.0285L8.52033 11.4893L11.1111 13.9875V6H11.8889V13.9875L14.4789 11.49L15.0296 12.0285L11.5 15.4327ZM5.75611 18C5.39833 18 5.09967 17.8845 4.86011 17.6535C4.62004 17.422 4.5 17.1337 4.5 16.7887V14.9715H5.27778V16.7887C5.27778 16.9038 5.32756 17.0095 5.42711 17.106C5.52719 17.202 5.63685 17.25 5.75611 17.25H17.2439C17.3631 17.25 17.4728 17.202 17.5729 17.106C17.6724 17.0095 17.7222 16.9038 17.7222 16.7887V14.9715H18.5V16.7887C18.5 17.1337 18.3802 17.4218 18.1407 17.6528C17.9006 17.8843 17.6017 18 17.2439 18H5.75611Z" fill="#1C94A3"/>
</svg>
