<svg width="21" height="21" viewBox="0 0 21 21" fill="none" xmlns="http://www.w3.org/2000/svg">
<path d="M10.5004 19.2957C15.3585 19.2957 19.2967 15.3575 19.2967 10.4994C19.2967 5.64136 15.3585 1.70312 10.5004 1.70312C5.64234 1.70312 1.7041 5.64136 1.7041 10.4994C1.7041 15.3575 5.64234 19.2957 10.5004 19.2957Z" fill="white" stroke="#1C94A3" stroke-width="1.5"/>
<path d="M10.376 6.124C10.1147 6.124 9.89067 6.03533 9.704 5.858C9.51733 5.67133 9.424 5.44733 9.424 5.186C9.424 4.92467 9.51267 4.70533 9.69 4.528C9.87667 4.35067 10.1053 4.262 10.376 4.262C10.628 4.262 10.8427 4.35067 11.02 4.528C11.1973 4.70533 11.286 4.92467 11.286 5.186C11.286 5.44733 11.1973 5.67133 11.02 5.858C10.8427 6.03533 10.628 6.124 10.376 6.124ZM8.892 15V14.72L9.872 14.58V8.182L8.892 8.042V7.762H11.272V14.58L12.252 14.72V15H8.892Z" fill="#1C94A3"/>
</svg>
