<svg width="19" height="19" viewBox="0 0 19 19" fill="none" xmlns="http://www.w3.org/2000/svg">
<path d="M9.502 5.43945C9.16191 5.43945 8.88184 5.71945 8.88184 6.05945V9.49945C8.88184 9.83945 9.16191 10.1195 9.502 10.1195H12.3427C12.6828 10.1195 12.9629 9.83945 12.9629 9.49945C12.9629 9.15945 12.6828 8.87945 12.3427 8.87945H10.1222V6.07945C10.1222 5.71945 9.84209 5.43945 9.502 5.43945Z" fill="#1C94A3"/>
<path d="M16.2243 2.78C14.4238 0.98 12.0432 0 9.5025 0C6.96183 0 4.58121 0.98 2.78073 2.78L2.42064 3.14V1.18C2.42064 0.84 2.14056 0.56 1.80047 0.56C1.46038 0.56 1.18031 0.84 1.18031 1.18V4.66C1.18031 5 1.46038 5.28 1.80047 5.28H5.28139C5.62148 5.28 5.90155 5 5.90155 4.66C5.90155 4.32 5.62148 4.04 5.28139 4.04H3.30087L3.66096 3.68C5.06133 2.28 6.90182 1.44 8.86233 1.3V2.5C8.86233 2.84 9.14241 3.12 9.4825 3.12C9.82259 3.12 10.1027 2.84 10.1027 2.5V1.3C12.0632 1.44 13.9037 2.28 15.304 3.68C16.7444 5.12 17.5446 6.98 17.6847 8.88H16.5043C16.1643 8.88 15.8842 9.16 15.8842 9.5C15.8842 9.84 16.1643 10.12 16.5043 10.12H17.6847C17.5446 12.02 16.7444 13.88 15.304 15.32C13.8636 16.76 12.0032 17.56 10.1027 17.7V16.52C10.1027 16.18 9.82259 15.9 9.4825 15.9C9.14241 15.9 8.86233 16.18 8.86233 16.52V17.7C6.96183 17.56 5.10134 16.76 3.66096 15.32C2.24059 13.9 1.40037 12.08 1.26033 10.12H2.46065C2.80074 10.12 3.08081 9.84 3.08081 9.5C3.08081 9.16 2.80074 8.88 2.46065 8.88H0.620163C0.280074 8.88 0 9.16 0 9.5C0 12.04 0.980258 14.42 2.78073 16.22C4.64122 18.08 7.06186 19 9.5025 19C11.9431 19 14.3638 18.08 16.2243 16.22C19.9252 12.52 19.9252 6.48 16.2243 2.78Z" fill="#1C94A3"/>
</svg>
