<svg width="40" height="40" viewBox="0 0 40 40" fill="none" xmlns="http://www.w3.org/2000/svg">
<path d="M14.1001 18.8167L23.5334 9.39999C23.6884 9.24378 23.8727 9.11979 24.0758 9.03518C24.2789 8.95056 24.4968 8.907 24.7168 8.907C24.9368 8.907 25.1546 8.95056 25.3577 9.03518C25.5608 9.11979 25.7452 9.24378 25.9001 9.39999C26.2105 9.71227 26.3848 10.1347 26.3848 10.575C26.3848 11.0153 26.2105 11.4377 25.9001 11.75L17.6501 20.0833L25.9001 28.3333C26.2105 28.6456 26.3848 29.068 26.3848 29.5083C26.3848 29.9486 26.2105 30.3711 25.9001 30.6833C25.7458 30.8408 25.5617 30.9661 25.3586 31.0519C25.1554 31.1377 24.9373 31.1824 24.7168 31.1833C24.4963 31.1824 24.2781 31.1377 24.075 31.0519C23.8719 30.9661 23.6878 30.8408 23.5334 30.6833L14.1001 21.2667C13.9309 21.1106 13.7959 20.9212 13.7036 20.7103C13.6112 20.4995 13.5636 20.2718 13.5636 20.0417C13.5636 19.8115 13.6112 19.5838 13.7036 19.373C13.7959 19.1622 13.9309 18.9727 14.1001 18.8167Z" fill="#EBECEF"/>
</svg>
