<svg width="24" height="24" viewBox="0 0 24 24" fill="none" xmlns="http://www.w3.org/2000/svg">
<path d="M16.2857 12.9961H7.71429C7.52485 12.9961 7.34316 12.8907 7.20921 12.7032C7.07526 12.5157 7 12.2613 7 11.9961C7 11.7309 7.07526 11.4765 7.20921 11.289C7.34316 11.1015 7.52485 10.9961 7.71429 10.9961H16.2857C16.4752 10.9961 16.6568 11.1015 16.7908 11.289C16.9247 11.4765 17 11.7309 17 11.9961C17 12.2613 16.9247 12.5157 16.7908 12.7032C16.6568 12.8907 16.4752 12.9961 16.2857 12.9961Z" fill="#ffffff"/>
<path d="M13 7.71038V16.2818C13 16.4712 12.8946 16.6529 12.7071 16.7869C12.5196 16.9208 12.2652 16.9961 12 16.9961C11.7348 16.9961 11.4804 16.9208 11.2929 16.7869C11.1054 16.6529 11 16.4712 11 16.2818V7.71038C11 7.52094 11.1054 7.33926 11.2929 7.2053C11.4804 7.07135 11.7348 6.99609 12 6.99609C12.2652 6.99609 12.5196 7.07135 12.7071 7.2053C12.8946 7.33926 13 7.52094 13 7.71038Z" fill="#ffffff"/>
</svg>