<svg width="40" height="40" viewBox="0 0 40 40" fill="none" xmlns="http://www.w3.org/2000/svg">
<path d="M25.8999 18.8167L16.4666 9.4C16.3116 9.24378 16.1273 9.11979 15.9242 9.03518C15.7211 8.95057 15.5032 8.907 15.2832 8.907C15.0632 8.907 14.8454 8.95057 14.6423 9.03518C14.4392 9.11979 14.2548 9.24378 14.0999 9.4C13.7895 9.71227 13.6152 10.1347 13.6152 10.575C13.6152 11.0153 13.7895 11.4377 14.0999 11.75L22.3499 20.0833L14.0999 28.3333C13.7895 28.6456 13.6152 29.068 13.6152 29.5083C13.6152 29.9486 13.7895 30.3711 14.0999 30.6833C14.2542 30.8408 14.4383 30.9661 14.6414 31.0519C14.8446 31.1378 15.0627 31.1824 15.2832 31.1833C15.5037 31.1824 15.7219 31.1378 15.925 31.0519C16.1281 30.9661 16.3122 30.8408 16.4666 30.6833L25.8999 21.2667C26.0691 21.1106 26.2041 20.9212 26.2964 20.7103C26.3888 20.4995 26.4364 20.2718 26.4364 20.0417C26.4364 19.8115 26.3888 19.5838 26.2964 19.373C26.2041 19.1622 26.0691 18.9727 25.8999 18.8167Z" fill="#C4C5CE"/>
</svg>
