<svg width="21" height="21" viewBox="0 0 21 21" fill="none" xmlns="http://www.w3.org/2000/svg">
<path d="M1.4629 10.5022C1.46331 10.9164 1.79943 11.2519 2.21364 11.2515C2.62786 11.2511 2.96331 10.9149 2.96289 10.5007L2.21289 10.5015L1.4629 10.5022ZM3.5961 5.79932L4.22623 6.20605L4.2266 6.20548L3.5961 5.79932ZM7.27899 2.68228L6.98356 1.99292L6.98262 1.99332L7.27899 2.68228ZM12.0198 2.19865L12.1723 1.46431L12.17 1.46383L12.0198 2.19865ZM16.2202 4.51647L15.6803 5.03701L15.6809 5.03762L16.2202 4.51647ZM17.5609 8.29048C17.6753 8.68857 18.0908 8.91853 18.4889 8.80411C18.887 8.68968 19.117 8.2742 19.0025 7.87611L18.2817 8.08329L17.5609 8.29048ZM17.5558 7.89465C17.4516 8.29554 17.6922 8.70499 18.0931 8.80918C18.494 8.91337 18.9034 8.67283 19.0076 8.27194L18.2817 8.08329L17.5558 7.89465ZM19.8661 4.9687C19.9702 4.56781 19.7297 4.15835 19.3288 4.05417C18.9279 3.94998 18.5185 4.19051 18.4143 4.59141L19.1402 4.78006L19.8661 4.9687ZM18.0815 8.80623C18.4807 8.91655 18.8938 8.68233 19.0042 8.28308C19.1145 7.88383 18.8803 7.47074 18.481 7.36041L18.2813 8.08332L18.0815 8.80623ZM15.2781 6.47536C14.8789 6.36503 14.4658 6.59925 14.3555 6.99851C14.2451 7.39776 14.4794 7.81085 14.8786 7.92117L15.0784 7.19827L15.2781 6.47536ZM19.8902 10.5007C19.8898 10.0865 19.5536 9.75106 19.1394 9.75147C18.7252 9.75189 18.3898 10.088 18.3902 10.5022L19.1402 10.5015L19.8902 10.5007ZM17.757 15.2036L17.1268 14.7969L17.1265 14.7975L17.757 15.2036ZM14.0741 18.3207L14.3695 19.01L14.3704 19.0096L14.0741 18.3207ZM9.33323 18.8043L9.18072 19.5386L9.18309 19.5391L9.33323 18.8043ZM5.13285 16.4865L5.67279 15.9659L5.6722 15.9653L5.13285 16.4865ZM3.79216 12.7125C3.67774 12.3144 3.26226 12.0844 2.86416 12.1988C2.46607 12.3133 2.23611 12.7287 2.35053 13.1268L3.07135 12.9197L3.79216 12.7125ZM3.79724 13.1083C3.90142 12.7074 3.66089 12.298 3.26 12.1938C2.8591 12.0896 2.44965 12.3301 2.34546 12.731L3.07135 12.9197L3.79724 13.1083ZM1.48701 16.0342C1.38282 16.4351 1.62335 16.8446 2.02425 16.9488C2.42515 17.053 2.8346 16.8124 2.93878 16.4115L2.21289 16.2229L1.48701 16.0342ZM3.27111 12.1967C2.87186 12.0864 2.45877 12.3206 2.34844 12.7199C2.23812 13.1191 2.47234 13.5322 2.87159 13.6426L3.07135 12.9197L3.27111 12.1967ZM6.07447 14.5276C6.47372 14.6379 6.88681 14.4037 6.99714 14.0045C7.10746 13.6052 6.87324 13.1921 6.47399 13.0818L6.27423 13.8047L6.07447 14.5276ZM2.21289 10.5015L2.96289 10.5007C2.96137 8.97734 3.40008 7.48597 4.22623 6.20605L3.5961 5.79932L2.96596 5.39259C1.98304 6.91538 1.46109 8.68976 1.4629 10.5022L2.21289 10.5015ZM3.5961 5.79932L4.2266 6.20548C5.03617 4.94875 6.20209 3.96196 7.57535 3.37125L7.27899 2.68228L6.98262 1.99332C5.33532 2.70192 3.93673 3.88563 2.96559 5.39316L3.5961 5.79932ZM7.27899 2.68228L7.57441 3.37165C8.92812 2.79151 10.4267 2.63863 11.8697 2.93347L12.0198 2.19865L12.17 1.46383C10.4276 1.10783 8.61812 1.29243 6.98356 1.99292L7.27899 2.68228ZM12.0198 2.19865L11.8673 2.93298C13.321 3.23488 14.6498 3.96815 15.6803 5.03701L16.2202 4.51647L16.7602 3.99594C15.5203 2.70986 13.9214 1.82757 12.1723 1.46432L12.0198 2.19865ZM16.2202 4.51647L15.6809 5.03762C16.5642 5.9518 17.2097 7.06873 17.5609 8.29048L18.2817 8.08329L19.0025 7.87611C18.5836 6.41852 17.8134 5.08598 16.7596 3.99532L16.2202 4.51647ZM18.2817 8.08329L19.0076 8.27194L19.8661 4.9687L19.1402 4.78006L18.4143 4.59141L17.5558 7.89465L18.2817 8.08329ZM18.2813 8.08332L18.481 7.36041L15.2781 6.47536L15.0784 7.19827L14.8786 7.92117L18.0815 8.80623L18.2813 8.08332ZM19.1402 10.5015L18.3902 10.5022C18.3917 12.0256 17.953 13.517 17.1268 14.7969L17.757 15.2036L18.3871 15.6104C19.37 14.0876 19.892 12.3132 19.8902 10.5007L19.1402 10.5015ZM17.757 15.2036L17.1265 14.7975C16.3169 16.0542 15.151 17.041 13.7777 17.6317L14.0741 18.3207L14.3704 19.0096C16.0177 18.301 17.4163 17.1173 18.3875 15.6098L17.757 15.2036ZM14.0741 18.3207L13.7787 17.6313C12.4249 18.2114 10.9263 18.3643 9.48337 18.0695L9.33323 18.8043L9.18309 19.5391C10.9254 19.8951 12.7349 19.7105 14.3695 19.01L14.0741 18.3207ZM9.33323 18.8043L9.48574 18.07C8.03207 17.7681 6.70324 17.0348 5.67279 15.9659L5.13285 16.4865L4.59291 17.007C5.83276 18.2931 7.43164 19.1754 9.18072 19.5386L9.33323 18.8043ZM5.13285 16.4865L5.6722 15.9653C4.78888 15.0511 4.14333 13.9342 3.79216 12.7125L3.07135 12.9197L2.35053 13.1268C2.76949 14.5844 3.53966 15.917 4.59349 17.0076L5.13285 16.4865ZM3.07135 12.9197L2.34546 12.731L1.48701 16.0342L2.21289 16.2229L2.93878 16.4115L3.79724 13.1083L3.07135 12.9197ZM3.07135 12.9197L2.87159 13.6426L6.07447 14.5276L6.27423 13.8047L6.47399 13.0818L3.27111 12.1967L3.07135 12.9197Z" fill="#4792A1"/>
</svg>
